<svg width="179" height="84" viewBox="0 0 179 84" fill="none" xmlns="http://www.w3.org/2000/svg">
<g filter="url(#filter0_d_115_81)">
<rect x="14" y="14" width="143" height="48" rx="8" fill="white"/>
</g>
<path d="M68.9 45L72.32 31.86H74.498L77.9 45H76.262L75.398 41.508H71.42L70.556 45H68.9ZM71.744 40.14H75.056L74.048 36.09C73.856 35.322 73.706 34.68 73.598 34.164C73.49 33.648 73.424 33.312 73.4 33.156C73.376 33.312 73.31 33.648 73.202 34.164C73.094 34.68 72.944 35.316 72.752 36.072L71.744 40.14ZM80.449 45V35.1H82.069V36.99H82.411L82.069 37.368C82.069 36.588 82.303 35.988 82.771 35.568C83.239 35.136 83.887 34.92 84.715 34.92C85.711 34.92 86.503 35.226 87.091 35.838C87.679 36.45 87.973 37.284 87.973 38.34V45H86.353V38.52C86.353 37.812 86.161 37.272 85.777 36.9C85.405 36.516 84.895 36.324 84.247 36.324C83.575 36.324 83.041 36.528 82.645 36.936C82.261 37.344 82.069 37.932 82.069 38.7V45H80.449ZM94.4099 45.18C93.4259 45.18 92.6279 44.85 92.0159 44.19C91.4159 43.53 91.1159 42.636 91.1159 41.508V38.61C91.1159 37.47 91.4159 36.57 92.0159 35.91C92.6159 35.25 93.4139 34.92 94.4099 34.92C95.2259 34.92 95.8799 35.142 96.3719 35.586C96.8639 36.03 97.1099 36.624 97.1099 37.368L96.7859 36.99H97.1459L97.1099 34.74V31.86H98.7299V45H97.1099V43.11H96.7859L97.1099 42.732C97.1099 43.488 96.8639 44.088 96.3719 44.532C95.8799 44.964 95.2259 45.18 94.4099 45.18ZM94.9499 43.776C95.6219 43.776 96.1499 43.566 96.5339 43.146C96.9179 42.726 97.1099 42.144 97.1099 41.4V38.7C97.1099 37.956 96.9179 37.374 96.5339 36.954C96.1499 36.534 95.6219 36.324 94.9499 36.324C94.2659 36.324 93.7259 36.528 93.3299 36.936C92.9339 37.344 92.7359 37.932 92.7359 38.7V41.4C92.7359 42.168 92.9339 42.756 93.3299 43.164C93.7259 43.572 94.2659 43.776 94.9499 43.776ZM102.377 45V35.1H103.961V36.99H104.339L103.817 38.16C103.817 37.092 104.045 36.288 104.501 35.748C104.969 35.196 105.659 34.92 106.571 34.92C107.615 34.92 108.443 35.25 109.055 35.91C109.679 36.558 109.991 37.44 109.991 38.556V39.15H108.371V38.7C108.371 37.92 108.179 37.326 107.795 36.918C107.423 36.498 106.889 36.288 106.193 36.288C105.509 36.288 104.969 36.498 104.573 36.918C104.189 37.338 103.997 37.932 103.997 38.7V45H102.377ZM116.572 45.144C115.78 45.144 115.096 44.994 114.52 44.694C113.944 44.394 113.494 43.962 113.17 43.398C112.858 42.822 112.702 42.144 112.702 41.364V38.736C112.702 37.944 112.858 37.266 113.17 36.702C113.494 36.138 113.944 35.706 114.52 35.406C115.096 35.106 115.78 34.956 116.572 34.956C117.364 34.956 118.048 35.106 118.624 35.406C119.2 35.706 119.644 36.138 119.956 36.702C120.28 37.266 120.442 37.938 120.442 38.718V41.364C120.442 42.144 120.28 42.822 119.956 43.398C119.644 43.962 119.2 44.394 118.624 44.694C118.048 44.994 117.364 45.144 116.572 45.144ZM116.572 43.704C117.28 43.704 117.832 43.506 118.228 43.11C118.624 42.714 118.822 42.132 118.822 41.364V38.736C118.822 37.968 118.624 37.386 118.228 36.99C117.832 36.594 117.28 36.396 116.572 36.396C115.876 36.396 115.324 36.594 114.916 36.99C114.52 37.386 114.322 37.968 114.322 38.736V41.364C114.322 42.132 114.52 42.714 114.916 43.11C115.324 43.506 115.876 43.704 116.572 43.704ZM123.495 45V43.524H127.005V36.576H123.945V35.1H128.625V43.524H131.955V45H123.495ZM127.635 33.318C127.239 33.318 126.927 33.216 126.699 33.012C126.471 32.808 126.357 32.532 126.357 32.184C126.357 31.824 126.471 31.542 126.699 31.338C126.927 31.122 127.239 31.014 127.635 31.014C128.031 31.014 128.343 31.122 128.571 31.338C128.799 31.542 128.913 31.824 128.913 32.184C128.913 32.532 128.799 32.808 128.571 33.012C128.343 33.216 128.031 33.318 127.635 33.318ZM137.582 45.18C136.598 45.18 135.8 44.85 135.188 44.19C134.588 43.53 134.288 42.636 134.288 41.508V38.61C134.288 37.47 134.588 36.57 135.188 35.91C135.788 35.25 136.586 34.92 137.582 34.92C138.398 34.92 139.052 35.142 139.544 35.586C140.036 36.03 140.282 36.624 140.282 37.368L139.958 36.99H140.318L140.282 34.74V31.86H141.902V45H140.282V43.11H139.958L140.282 42.732C140.282 43.488 140.036 44.088 139.544 44.532C139.052 44.964 138.398 45.18 137.582 45.18ZM138.122 43.776C138.794 43.776 139.322 43.566 139.706 43.146C140.09 42.726 140.282 42.144 140.282 41.4V38.7C140.282 37.956 140.09 37.374 139.706 36.954C139.322 36.534 138.794 36.324 138.122 36.324C137.438 36.324 136.898 36.528 136.502 36.936C136.106 37.344 135.908 37.932 135.908 38.7V41.4C135.908 42.168 136.106 42.756 136.502 43.164C136.898 43.572 137.438 43.776 138.122 43.776Z" fill="#4F4D4D"/>
<path d="M38.0835 27.6667L38.0002 33.0001H29.3335C29.3335 33.0001 29.3335 31.2887 29.3335 30.0001C29.3335 28.7114 30.3782 27.6667 31.6668 27.6667C32.9555 27.6667 38.0835 27.6667 38.0835 27.6667Z" fill="#37474F"/>
<path d="M46.0059 26.7513L47.2392 24.6733C47.4272 24.3566 47.3225 23.9473 47.0065 23.7593C46.6899 23.5706 46.2812 23.676 46.0925 23.992L44.7959 26.176C43.9259 25.8506 42.9852 25.6666 41.9999 25.6666C41.0145 25.6666 40.0739 25.8506 39.2032 26.1766L37.9065 23.9926C37.7185 23.6766 37.3099 23.5713 36.9925 23.76C36.6759 23.948 36.5719 24.3573 36.7599 24.674L37.9932 26.752C35.7925 28.032 34.2545 30.3266 34.0332 33.0006H49.9665C49.7452 30.326 48.2072 28.0313 46.0059 26.7513Z" fill="#00E676"/>
<path d="M38.6667 30.3333C39.0349 30.3333 39.3333 30.0349 39.3333 29.6667C39.3333 29.2985 39.0349 29 38.6667 29C38.2985 29 38 29.2985 38 29.6667C38 30.0349 38.2985 30.3333 38.6667 30.3333Z" fill="white"/>
<path d="M45.3332 30.3333C45.7014 30.3333 45.9998 30.0349 45.9998 29.6667C45.9998 29.2985 45.7014 29 45.3332 29C44.965 29 44.6665 29.2985 44.6665 29.6667C44.6665 30.0349 44.965 30.3333 45.3332 30.3333Z" fill="white"/>
<path d="M52.3335 32.3333C52.0042 32.3333 32.2402 32.3333 31.6668 32.3333C30.3782 32.3333 29.3335 31.2887 29.3335 30C29.3335 30 29.3335 46.7113 29.3335 48C29.3335 49.2887 30.3782 50.3333 31.6668 50.3333C32.2402 50.3333 54.6668 50.3333 54.6668 50.3333C54.6668 50.3333 54.6668 35.9553 54.6668 34.6667C54.6668 33.378 53.6222 32.3333 52.3335 32.3333Z" fill="#448AFF"/>
<path d="M52.3335 37.0001C52.1055 37.0001 51.7528 37.0001 51.3335 37.0001V54.2501C51.7528 54.2501 52.1055 54.2501 52.3335 54.2501C53.6222 54.2501 54.6668 53.2054 54.6668 51.9167C54.6668 50.6281 54.6668 34.6667 54.6668 34.6667C54.6668 35.9554 53.6222 37.0001 52.3335 37.0001Z" fill="#37474F"/>
<path d="M48.512 52.374L43.5494 41.828C44.2234 41.3433 44.6667 40.558 44.6667 39.6667C44.6667 38.428 43.8134 37.3927 42.6667 37.0947V35.6667C42.6667 35.2987 42.368 35 42 35C41.632 35 41.3334 35.2987 41.3334 35.6667V37.0947C40.1867 37.3927 39.3334 38.428 39.3334 39.6667C39.3334 40.558 39.7767 41.3433 40.4507 41.828L35.4907 52.3687C35.208 52.9693 35.3567 53.7187 35.904 54.094C36.602 54.5727 37.5287 54.3 37.8734 53.5673L40.9687 46.99C41.3794 46.1173 42.6214 46.1173 43.032 46.99L46.1274 53.5673C46.354 54.0507 46.8334 54.3333 47.334 54.3333C47.608 54.3333 47.8887 54.248 48.136 54.0653C48.6547 53.6827 48.7867 52.9573 48.512 52.374ZM42 38.3333C42.7354 38.3333 43.3334 38.9313 43.3334 39.6667C43.3334 40.402 42.7354 41 42 41C41.2647 41 40.6667 40.402 40.6667 39.6667C40.6667 38.9313 41.2647 38.3333 42 38.3333Z" fill="#37474F"/>
<defs>
<filter id="filter0_d_115_81" x="0" y="0" width="179" height="84" filterUnits="userSpaceOnUse" color-interpolation-filters="sRGB">
<feFlood flood-opacity="0" result="BackgroundImageFix"/>
<feColorMatrix in="SourceAlpha" type="matrix" values="0 0 0 0 0 0 0 0 0 0 0 0 0 0 0 0 0 0 127 0" result="hardAlpha"/>
<feOffset dx="4" dy="4"/>
<feGaussianBlur stdDeviation="9"/>
<feComposite in2="hardAlpha" operator="out"/>
<feColorMatrix type="matrix" values="0 0 0 0 0 0 0 0 0 0 0 0 0 0 0 0 0 0 0.1 0"/>
<feBlend mode="normal" in2="BackgroundImageFix" result="effect1_dropShadow_115_81"/>
<feBlend mode="normal" in="SourceGraphic" in2="effect1_dropShadow_115_81" result="shape"/>
</filter>
</defs>
</svg>
