<svg width="138" height="68" viewBox="0 0 138 68" fill="none" xmlns="http://www.w3.org/2000/svg">
<g filter="url(#filter0_d_116_277)">
<rect x="14" y="14" width="102" height="32" rx="8" fill="white"/>
<rect x="14.5" y="14.5" width="101" height="31" rx="7.5" stroke="#BCBEC0"/>
</g>
<path d="M31.0625 21.5L31 25.5H24.5C24.5 25.5 24.5 24.2165 24.5 23.25C24.5 22.2835 25.2835 21.5 26.25 21.5C27.2165 21.5 31.0625 21.5 31.0625 21.5Z" fill="#37474F"/>
<path d="M37.0044 20.8135L37.9294 19.255C38.0704 19.0175 37.9919 18.7105 37.7549 18.5695C37.5174 18.428 37.2109 18.507 37.0694 18.744L36.0969 20.382C35.4444 20.138 34.7389 20 33.9999 20C33.2609 20 32.5554 20.138 31.9024 20.3825L30.9299 18.7445C30.7889 18.5075 30.4824 18.4285 30.2444 18.57C30.0069 18.711 29.9289 19.018 30.0699 19.2555L30.9949 20.814C29.3444 21.774 28.1909 23.495 28.0249 25.5005H39.9749C39.8089 23.4945 38.6554 21.7735 37.0044 20.8135Z" fill="#00E676"/>
<path d="M31.5 23.5C31.7761 23.5 32 23.2761 32 23C32 22.7239 31.7761 22.5 31.5 22.5C31.2239 22.5 31 22.7239 31 23C31 23.2761 31.2239 23.5 31.5 23.5Z" fill="white"/>
<path d="M36.5 23.5C36.7761 23.5 37 23.2761 37 23C37 22.7239 36.7761 22.5 36.5 22.5C36.2239 22.5 36 22.7239 36 23C36 23.2761 36.2239 23.5 36.5 23.5Z" fill="white"/>
<path d="M41.75 25C41.503 25 26.68 25 26.25 25C25.2835 25 24.5 24.2165 24.5 23.25C24.5 23.25 24.5 35.7835 24.5 36.75C24.5 37.7165 25.2835 38.5 26.25 38.5C26.68 38.5 43.5 38.5 43.5 38.5C43.5 38.5 43.5 27.7165 43.5 26.75C43.5 25.7835 42.7165 25 41.75 25Z" fill="#448AFF"/>
<path d="M41.75 28.5C41.579 28.5 41.3145 28.5 41 28.5V41.4375C41.3145 41.4375 41.579 41.4375 41.75 41.4375C42.7165 41.4375 43.5 40.654 43.5 39.6875C43.5 38.721 43.5 26.75 43.5 26.75C43.5 27.7165 42.7165 28.5 41.75 28.5Z" fill="#37474F"/>
<path d="M38.8838 40.0305L35.1618 32.121C35.6673 31.7575 35.9998 31.1685 35.9998 30.5C35.9998 29.571 35.3598 28.7945 34.4998 28.571V27.5C34.4998 27.224 34.2758 27 33.9998 27C33.7238 27 33.4998 27.224 33.4998 27.5V28.571C32.6398 28.7945 31.9998 29.571 31.9998 30.5C31.9998 31.1685 32.3323 31.7575 32.8378 32.121L29.1178 40.0265C28.9058 40.477 29.0173 41.039 29.4278 41.3205C29.9513 41.6795 30.6463 41.475 30.9048 40.9255L33.2263 35.9925C33.5343 35.338 34.4658 35.338 34.7738 35.9925L37.0953 40.9255C37.2653 41.288 37.6248 41.5 38.0003 41.5C38.2058 41.5 38.4163 41.436 38.6018 41.299C38.9908 41.012 39.0898 40.468 38.8838 40.0305ZM33.9998 29.5C34.5513 29.5 34.9998 29.9485 34.9998 30.5C34.9998 31.0515 34.5513 31.5 33.9998 31.5C33.4483 31.5 32.9998 31.0515 32.9998 30.5C32.9998 29.9485 33.4483 29.5 33.9998 29.5Z" fill="#37474F"/>
<path d="M54.6 34L56.88 25.24H58.332L60.6 34H59.508L58.932 31.672H56.28L55.704 34H54.6ZM56.496 30.76H58.704L58.032 28.06C57.904 27.548 57.804 27.12 57.732 26.776C57.66 26.432 57.616 26.208 57.6 26.104C57.584 26.208 57.54 26.432 57.468 26.776C57.396 27.12 57.296 27.544 57.168 28.048L56.496 30.76ZM62.2993 34V27.4H63.3793V28.66H63.6073L63.3793 28.912C63.3793 28.392 63.5353 27.992 63.8473 27.712C64.1593 27.424 64.5913 27.28 65.1433 27.28C65.8073 27.28 66.3353 27.484 66.7273 27.892C67.1193 28.3 67.3153 28.856 67.3153 29.56V34H66.2353V29.68C66.2353 29.208 66.1073 28.848 65.8513 28.6C65.6033 28.344 65.2633 28.216 64.8313 28.216C64.3833 28.216 64.0273 28.352 63.7633 28.624C63.5073 28.896 63.3793 29.288 63.3793 29.8V34H62.2993ZM71.6066 34.12C70.9506 34.12 70.4186 33.9 70.0106 33.46C69.6106 33.02 69.4106 32.424 69.4106 31.672V29.74C69.4106 28.98 69.6106 28.38 70.0106 27.94C70.4106 27.5 70.9426 27.28 71.6066 27.28C72.1506 27.28 72.5866 27.428 72.9146 27.724C73.2426 28.02 73.4066 28.416 73.4066 28.912L73.1906 28.66H73.4306L73.4066 27.16V25.24H74.4866V34H73.4066V32.74H73.1906L73.4066 32.488C73.4066 32.992 73.2426 33.392 72.9146 33.688C72.5866 33.976 72.1506 34.12 71.6066 34.12ZM71.9666 33.184C72.4146 33.184 72.7666 33.044 73.0226 32.764C73.2786 32.484 73.4066 32.096 73.4066 31.6V29.8C73.4066 29.304 73.2786 28.916 73.0226 28.636C72.7666 28.356 72.4146 28.216 71.9666 28.216C71.5106 28.216 71.1506 28.352 70.8866 28.624C70.6226 28.896 70.4906 29.288 70.4906 29.8V31.6C70.4906 32.112 70.6226 32.504 70.8866 32.776C71.1506 33.048 71.5106 33.184 71.9666 33.184ZM76.9179 34V27.4H77.9739V28.66H78.2259L77.8779 29.44C77.8779 28.728 78.0299 28.192 78.3339 27.832C78.6459 27.464 79.1059 27.28 79.7139 27.28C80.4099 27.28 80.9619 27.5 81.3699 27.94C81.7859 28.372 81.9939 28.96 81.9939 29.704V30.1H80.9139V29.8C80.9139 29.28 80.7859 28.884 80.5299 28.612C80.2819 28.332 79.9259 28.192 79.4619 28.192C79.0059 28.192 78.6459 28.332 78.3819 28.612C78.1259 28.892 77.9979 29.288 77.9979 29.8V34H76.9179ZM86.3813 34.096C85.8533 34.096 85.3973 33.996 85.0133 33.796C84.6293 33.596 84.3293 33.308 84.1133 32.932C83.9053 32.548 83.8013 32.096 83.8013 31.576V29.824C83.8013 29.296 83.9053 28.844 84.1133 28.468C84.3293 28.092 84.6293 27.804 85.0133 27.604C85.3973 27.404 85.8533 27.304 86.3813 27.304C86.9093 27.304 87.3653 27.404 87.7493 27.604C88.1333 27.804 88.4293 28.092 88.6373 28.468C88.8533 28.844 88.9613 29.292 88.9613 29.812V31.576C88.9613 32.096 88.8533 32.548 88.6373 32.932C88.4293 33.308 88.1333 33.596 87.7493 33.796C87.3653 33.996 86.9093 34.096 86.3813 34.096ZM86.3813 33.136C86.8533 33.136 87.2213 33.004 87.4853 32.74C87.7493 32.476 87.8813 32.088 87.8813 31.576V29.824C87.8813 29.312 87.7493 28.924 87.4853 28.66C87.2213 28.396 86.8533 28.264 86.3813 28.264C85.9173 28.264 85.5493 28.396 85.2773 28.66C85.0133 28.924 84.8813 29.312 84.8813 29.824V31.576C84.8813 32.088 85.0133 32.476 85.2773 32.74C85.5493 33.004 85.9173 33.136 86.3813 33.136ZM90.9966 34V33.016H93.3366V28.384H91.2966V27.4H94.4166V33.016H96.6366V34H90.9966ZM93.7566 26.212C93.4926 26.212 93.2846 26.144 93.1326 26.008C92.9806 25.872 92.9046 25.688 92.9046 25.456C92.9046 25.216 92.9806 25.028 93.1326 24.892C93.2846 24.748 93.4926 24.676 93.7566 24.676C94.0206 24.676 94.2286 24.748 94.3806 24.892C94.5326 25.028 94.6086 25.216 94.6086 25.456C94.6086 25.688 94.5326 25.872 94.3806 26.008C94.2286 26.144 94.0206 26.212 93.7566 26.212ZM100.388 34.12C99.7319 34.12 99.1999 33.9 98.7919 33.46C98.3919 33.02 98.1919 32.424 98.1919 31.672V29.74C98.1919 28.98 98.3919 28.38 98.7919 27.94C99.1919 27.5 99.7239 27.28 100.388 27.28C100.932 27.28 101.368 27.428 101.696 27.724C102.024 28.02 102.188 28.416 102.188 28.912L101.972 28.66H102.212L102.188 27.16V25.24H103.268V34H102.188V32.74H101.972L102.188 32.488C102.188 32.992 102.024 33.392 101.696 33.688C101.368 33.976 100.932 34.12 100.388 34.12ZM100.748 33.184C101.196 33.184 101.548 33.044 101.804 32.764C102.06 32.484 102.188 32.096 102.188 31.6V29.8C102.188 29.304 102.06 28.916 101.804 28.636C101.548 28.356 101.196 28.216 100.748 28.216C100.292 28.216 99.9319 28.352 99.6679 28.624C99.4039 28.896 99.2719 29.288 99.2719 29.8V31.6C99.2719 32.112 99.4039 32.504 99.6679 32.776C99.9319 33.048 100.292 33.184 100.748 33.184Z" fill="#4F4D4D"/>
<defs>
<filter id="filter0_d_116_277" x="0" y="0" width="138" height="68" filterUnits="userSpaceOnUse" color-interpolation-filters="sRGB">
<feFlood flood-opacity="0" result="BackgroundImageFix"/>
<feColorMatrix in="SourceAlpha" type="matrix" values="0 0 0 0 0 0 0 0 0 0 0 0 0 0 0 0 0 0 127 0" result="hardAlpha"/>
<feOffset dx="4" dy="4"/>
<feGaussianBlur stdDeviation="9"/>
<feComposite in2="hardAlpha" operator="out"/>
<feColorMatrix type="matrix" values="0 0 0 0 0 0 0 0 0 0 0 0 0 0 0 0 0 0 0.1 0"/>
<feBlend mode="normal" in2="BackgroundImageFix" result="effect1_dropShadow_116_277"/>
<feBlend mode="normal" in="SourceGraphic" in2="effect1_dropShadow_116_277" result="shape"/>
</filter>
</defs>
</svg>
