<svg width="102" height="32" viewBox="0 0 102 32" fill="none" xmlns="http://www.w3.org/2000/svg">
<style>
        rect {
             fill: #00000; <!-- set icon color for light mode -->
        }
        path {
      fill: #00000; <!-- set icon color for light mode -->
    }

      svg {
        background-color: white;
        color-scheme:light dark;
      }
      @media (prefers-color-scheme:dark) {
        svg {
          background-color: black;
        }
        rect {
             fill: #212121; <!-- set icon color for light mode -->
        }
        #gh-dark-mode-only{
      fill: #ffffff; <!-- set icon color for light mode -->
    }

      }
    </style>
<rect x="0.5" y="0.5" width="101" height="31" rx="7.5" fill="white" stroke="#BCBEC0"/>
<path d="M17.0625 7.5L17 11.5H10.5C10.5 11.5 10.5 10.2165 10.5 9.25C10.5 8.2835 11.2835 7.5 12.25 7.5C13.2165 7.5 17.0625 7.5 17.0625 7.5Z" fill="#37474F"/>
<path d="M23.0044 6.81347L23.9294 5.25497C24.0704 5.01747 23.9919 4.71047 23.7549 4.56947C23.5174 4.42797 23.2109 4.50697 23.0694 4.74397L22.0969 6.38197C21.4444 6.13797 20.7389 5.99997 19.9999 5.99997C19.2609 5.99997 18.5554 6.13797 17.9024 6.38247L16.9299 4.74447C16.7889 4.50747 16.4824 4.42847 16.2444 4.56997C16.0069 4.71097 15.9289 5.01797 16.0699 5.25547L16.9949 6.81397C15.3444 7.77397 14.1909 9.49497 14.0249 11.5005H25.9749C25.8089 9.49447 24.6554 7.77347 23.0044 6.81347Z" fill="#00E676"/>
<path d="M17.5 9.5C17.7761 9.5 18 9.27614 18 9C18 8.72386 17.7761 8.5 17.5 8.5C17.2239 8.5 17 8.72386 17 9C17 9.27614 17.2239 9.5 17.5 9.5Z" fill="white"/>
<path d="M22.5 9.5C22.7761 9.5 23 9.27614 23 9C23 8.72386 22.7761 8.5 22.5 8.5C22.2239 8.5 22 8.72386 22 9C22 9.27614 22.2239 9.5 22.5 9.5Z" fill="white"/>
<path d="M27.75 11C27.503 11 12.68 11 12.25 11C11.2835 11 10.5 10.2165 10.5 9.25C10.5 9.25 10.5 21.7835 10.5 22.75C10.5 23.7165 11.2835 24.5 12.25 24.5C12.68 24.5 29.5 24.5 29.5 24.5C29.5 24.5 29.5 13.7165 29.5 12.75C29.5 11.7835 28.7165 11 27.75 11Z" fill="#448AFF"/>
<path d="M27.75 14.5C27.579 14.5 27.3145 14.5 27 14.5V27.4375C27.3145 27.4375 27.579 27.4375 27.75 27.4375C28.7165 27.4375 29.5 26.654 29.5 25.6875C29.5 24.721 29.5 12.75 29.5 12.75C29.5 13.7165 28.7165 14.5 27.75 14.5Z" fill="#37474F"/>
<path d="M24.8838 26.0305L21.1618 18.121C21.6673 17.7575 21.9998 17.1685 21.9998 16.5C21.9998 15.571 21.3598 14.7945 20.4998 14.571V13.5C20.4998 13.224 20.2758 13 19.9998 13C19.7238 13 19.4998 13.224 19.4998 13.5V14.571C18.6398 14.7945 17.9998 15.571 17.9998 16.5C17.9998 17.1685 18.3323 17.7575 18.8378 18.121L15.1178 26.0265C14.9058 26.477 15.0173 27.039 15.4278 27.3205C15.9513 27.6795 16.6463 27.475 16.9048 26.9255L19.2263 21.9925C19.5343 21.338 20.4658 21.338 20.7738 21.9925L23.0953 26.9255C23.2653 27.288 23.6248 27.5 24.0003 27.5C24.2058 27.5 24.4163 27.436 24.6018 27.299C24.9908 27.012 25.0898 26.468 24.8838 26.0305ZM19.9998 15.5C20.5513 15.5 20.9998 15.9485 20.9998 16.5C20.9998 17.0515 20.5513 17.5 19.9998 17.5C19.4483 17.5 18.9998 17.0515 18.9998 16.5C18.9998 15.9485 19.4483 15.5 19.9998 15.5Z" fill="#37474F"/>
<path id="gh-dark-mode-only" d="M40.6 20L42.88 11.24H44.332L46.6 20H45.508L44.932 17.672H42.28L41.704 20H40.6ZM42.496 16.76H44.704L44.032 14.06C43.904 13.548 43.804 13.12 43.732 12.776C43.66 12.432 43.616 12.208 43.6 12.104C43.584 12.208 43.54 12.432 43.468 12.776C43.396 13.12 43.296 13.544 43.168 14.048L42.496 16.76ZM48.2993 20V13.4H49.3793V14.66H49.6073L49.3793 14.912C49.3793 14.392 49.5353 13.992 49.8473 13.712C50.1593 13.424 50.5913 13.28 51.1433 13.28C51.8073 13.28 52.3353 13.484 52.7273 13.892C53.1193 14.3 53.3153 14.856 53.3153 15.56V20H52.2353V15.68C52.2353 15.208 52.1073 14.848 51.8513 14.6C51.6033 14.344 51.2633 14.216 50.8313 14.216C50.3833 14.216 50.0273 14.352 49.7633 14.624C49.5073 14.896 49.3793 15.288 49.3793 15.8V20H48.2993ZM57.6066 20.12C56.9506 20.12 56.4186 19.9 56.0106 19.46C55.6106 19.02 55.4106 18.424 55.4106 17.672V15.74C55.4106 14.98 55.6106 14.38 56.0106 13.94C56.4106 13.5 56.9426 13.28 57.6066 13.28C58.1506 13.28 58.5866 13.428 58.9146 13.724C59.2426 14.02 59.4066 14.416 59.4066 14.912L59.1906 14.66H59.4306L59.4066 13.16V11.24H60.4866V20H59.4066V18.74H59.1906L59.4066 18.488C59.4066 18.992 59.2426 19.392 58.9146 19.688C58.5866 19.976 58.1506 20.12 57.6066 20.12ZM57.9666 19.184C58.4146 19.184 58.7666 19.044 59.0226 18.764C59.2786 18.484 59.4066 18.096 59.4066 17.6V15.8C59.4066 15.304 59.2786 14.916 59.0226 14.636C58.7666 14.356 58.4146 14.216 57.9666 14.216C57.5106 14.216 57.1506 14.352 56.8866 14.624C56.6226 14.896 56.4906 15.288 56.4906 15.8V17.6C56.4906 18.112 56.6226 18.504 56.8866 18.776C57.1506 19.048 57.5106 19.184 57.9666 19.184ZM62.9179 20V13.4H63.9739V14.66H64.2259L63.8779 15.44C63.8779 14.728 64.0299 14.192 64.3339 13.832C64.6459 13.464 65.1059 13.28 65.7139 13.28C66.4099 13.28 66.9619 13.5 67.3699 13.94C67.7859 14.372 67.9939 14.96 67.9939 15.704V16.1H66.9139V15.8C66.9139 15.28 66.7859 14.884 66.5299 14.612C66.2819 14.332 65.9259 14.192 65.4619 14.192C65.0059 14.192 64.6459 14.332 64.3819 14.612C64.1259 14.892 63.9979 15.288 63.9979 15.8V20H62.9179ZM72.3813 20.096C71.8533 20.096 71.3973 19.996 71.0133 19.796C70.6293 19.596 70.3293 19.308 70.1133 18.932C69.9053 18.548 69.8013 18.096 69.8013 17.576V15.824C69.8013 15.296 69.9053 14.844 70.1133 14.468C70.3293 14.092 70.6293 13.804 71.0133 13.604C71.3973 13.404 71.8533 13.304 72.3813 13.304C72.9093 13.304 73.3653 13.404 73.7493 13.604C74.1333 13.804 74.4293 14.092 74.6373 14.468C74.8533 14.844 74.9613 15.292 74.9613 15.812V17.576C74.9613 18.096 74.8533 18.548 74.6373 18.932C74.4293 19.308 74.1333 19.596 73.7493 19.796C73.3653 19.996 72.9093 20.096 72.3813 20.096ZM72.3813 19.136C72.8533 19.136 73.2213 19.004 73.4853 18.74C73.7493 18.476 73.8813 18.088 73.8813 17.576V15.824C73.8813 15.312 73.7493 14.924 73.4853 14.66C73.2213 14.396 72.8533 14.264 72.3813 14.264C71.9173 14.264 71.5493 14.396 71.2773 14.66C71.0133 14.924 70.8813 15.312 70.8813 15.824V17.576C70.8813 18.088 71.0133 18.476 71.2773 18.74C71.5493 19.004 71.9173 19.136 72.3813 19.136ZM76.9966 20V19.016H79.3366V14.384H77.2966V13.4H80.4166V19.016H82.6366V20H76.9966ZM79.7566 12.212C79.4926 12.212 79.2846 12.144 79.1326 12.008C78.9806 11.872 78.9046 11.688 78.9046 11.456C78.9046 11.216 78.9806 11.028 79.1326 10.892C79.2846 10.748 79.4926 10.676 79.7566 10.676C80.0206 10.676 80.2286 10.748 80.3806 10.892C80.5326 11.028 80.6086 11.216 80.6086 11.456C80.6086 11.688 80.5326 11.872 80.3806 12.008C80.2286 12.144 80.0206 12.212 79.7566 12.212ZM86.3879 20.12C85.7319 20.12 85.1999 19.9 84.7919 19.46C84.3919 19.02 84.1919 18.424 84.1919 17.672V15.74C84.1919 14.98 84.3919 14.38 84.7919 13.94C85.1919 13.5 85.7239 13.28 86.3879 13.28C86.9319 13.28 87.3679 13.428 87.6959 13.724C88.0239 14.02 88.1879 14.416 88.1879 14.912L87.9719 14.66H88.2119L88.1879 13.16V11.24H89.2679V20H88.1879V18.74H87.9719L88.1879 18.488C88.1879 18.992 88.0239 19.392 87.6959 19.688C87.3679 19.976 86.9319 20.12 86.3879 20.12ZM86.7479 19.184C87.1959 19.184 87.5479 19.044 87.8039 18.764C88.0599 18.484 88.1879 18.096 88.1879 17.6V15.8C88.1879 15.304 88.0599 14.916 87.8039 14.636C87.5479 14.356 87.1959 14.216 86.7479 14.216C86.2919 14.216 85.9319 14.352 85.6679 14.624C85.4039 14.896 85.2719 15.288 85.2719 15.8V17.6C85.2719 18.112 85.4039 18.504 85.6679 18.776C85.9319 19.048 86.2919 19.184 86.7479 19.184Z" fill="#4F4D4D"/>
</svg>
