<svg width="154" height="84" viewBox="0 0 154 84" fill="none" xmlns="http://www.w3.org/2000/svg">
<g filter="url(#filter0_d_115_82)">
<rect x="14" y="14" width="118" height="48" rx="8" fill="white"/>
</g>
<path d="M69.71 45V31.842H77.45V33.318H71.294V37.692H76.982V39.168H71.33V45H69.71ZM80.323 45V43.524H83.833V36.576H80.773V35.1H85.453V43.524H88.783V45H80.323ZM84.463 33.318C84.067 33.318 83.755 33.216 83.527 33.012C83.299 32.808 83.185 32.532 83.185 32.184C83.185 31.824 83.299 31.542 83.527 31.338C83.755 31.122 84.067 31.014 84.463 31.014C84.859 31.014 85.171 31.122 85.399 31.338C85.627 31.542 85.741 31.824 85.741 32.184C85.741 32.532 85.627 32.808 85.399 33.012C85.171 33.216 84.859 33.318 84.463 33.318ZM92.4839 48.24V46.764H95.6339C96.1379 46.764 96.5039 46.65 96.7319 46.422C96.9719 46.194 97.0919 45.84 97.0919 45.36V44.1L97.1279 42.3H96.8039L97.1099 42.03C97.1099 42.75 96.8699 43.32 96.3899 43.74C95.9099 44.16 95.2679 44.37 94.4639 44.37C93.4439 44.37 92.6399 44.04 92.0519 43.38C91.4639 42.708 91.1699 41.808 91.1699 40.68V38.592C91.1699 37.464 91.4639 36.57 92.0519 35.91C92.6399 35.25 93.4439 34.92 94.4639 34.92C95.2679 34.92 95.9099 35.13 96.3899 35.55C96.8699 35.97 97.1099 36.54 97.1099 37.26L96.8039 36.99H97.1099V35.1H98.7119V45.36C98.7119 46.248 98.4359 46.95 97.8839 47.466C97.3439 47.982 96.5879 48.24 95.6159 48.24H92.4839ZM94.9499 42.966C95.6219 42.966 96.1499 42.756 96.5339 42.336C96.9179 41.916 97.1099 41.334 97.1099 40.59V38.7C97.1099 37.956 96.9179 37.374 96.5339 36.954C96.1499 36.534 95.6219 36.324 94.9499 36.324C94.2659 36.324 93.7319 36.528 93.3479 36.936C92.9759 37.344 92.7899 37.932 92.7899 38.7V40.59C92.7899 41.358 92.9759 41.946 93.3479 42.354C93.7319 42.762 94.2659 42.966 94.9499 42.966ZM101.567 45V35.1H102.989V36.288H103.313L103.061 36.72C103.061 36.168 103.205 35.73 103.493 35.406C103.793 35.082 104.195 34.92 104.699 34.92C105.251 34.92 105.677 35.124 105.977 35.532C106.277 35.94 106.427 36.516 106.427 37.26L105.941 36.288H106.697L106.355 36.72C106.355 36.168 106.505 35.73 106.805 35.406C107.117 35.082 107.525 34.92 108.029 34.92C108.653 34.92 109.133 35.154 109.469 35.622C109.817 36.09 109.991 36.708 109.991 37.476V45H108.497V37.458C108.497 37.05 108.407 36.732 108.227 36.504C108.059 36.276 107.807 36.162 107.471 36.162C107.147 36.162 106.889 36.276 106.697 36.504C106.517 36.72 106.427 37.032 106.427 37.44V45H105.131V37.458C105.131 37.038 105.035 36.72 104.843 36.504C104.663 36.276 104.405 36.162 104.069 36.162C103.733 36.162 103.481 36.276 103.313 36.504C103.145 36.72 103.061 37.032 103.061 37.44V45H101.567ZM115.708 45.18C114.664 45.18 113.842 44.916 113.242 44.388C112.642 43.848 112.342 43.122 112.342 42.21C112.342 41.286 112.642 40.56 113.242 40.032C113.842 39.504 114.652 39.24 115.672 39.24H118.732V38.25C118.732 37.638 118.546 37.17 118.174 36.846C117.814 36.51 117.298 36.342 116.626 36.342C116.038 36.342 115.546 36.468 115.15 36.72C114.754 36.96 114.526 37.29 114.466 37.71H112.846C112.954 36.858 113.356 36.18 114.052 35.676C114.748 35.172 115.618 34.92 116.662 34.92C117.802 34.92 118.702 35.214 119.362 35.802C120.022 36.39 120.352 37.188 120.352 38.196V45H118.768V43.11H118.498L118.768 42.84C118.768 43.56 118.486 44.13 117.922 44.55C117.37 44.97 116.632 45.18 115.708 45.18ZM116.104 43.902C116.872 43.902 117.502 43.71 117.994 43.326C118.486 42.942 118.732 42.45 118.732 41.85V40.446H115.708C115.168 40.446 114.742 40.596 114.43 40.896C114.118 41.196 113.962 41.604 113.962 42.12C113.962 42.672 114.148 43.11 114.52 43.434C114.904 43.746 115.432 43.902 116.104 43.902Z" fill="#4F4D4D"/>
<path d="M43.3335 34.3333H38.0002C35.4228 34.3333 33.3335 32.244 33.3335 29.6667C33.3335 27.0893 35.4228 25 38.0002 25H43.3335V34.3333Z" fill="#E64A19"/>
<path d="M42.6668 43.6666H38.0002C35.4228 43.6666 33.3335 41.5773 33.3335 38.9999C33.3335 36.4226 35.4228 34.3333 38.0002 34.3333H42.6668V43.6666Z" fill="#7C4DFF"/>
<path d="M38.0002 53.0001C35.4228 53.0001 33.3335 50.9107 33.3335 48.3334C33.3335 45.7561 35.4228 43.6667 38.0002 43.6667H42.6668V48.3334C42.6668 50.9107 40.5775 53.0001 38.0002 53.0001Z" fill="#66BB6A"/>
<path d="M47.3332 34.3333H42.6665V25H47.3332C49.9105 25 51.9998 27.0893 51.9998 29.6667C51.9998 32.244 49.9105 34.3333 47.3332 34.3333Z" fill="#FF7043"/>
<path d="M47.3332 43.6666C49.9105 43.6666 51.9998 41.5772 51.9998 38.9999C51.9998 36.4226 49.9105 34.3333 47.3332 34.3333C44.7558 34.3333 42.6665 36.4226 42.6665 38.9999C42.6665 41.5772 44.7558 43.6666 47.3332 43.6666Z" fill="#29B6F6"/>
<defs>
<filter id="filter0_d_115_82" x="0" y="0" width="154" height="84" filterUnits="userSpaceOnUse" color-interpolation-filters="sRGB">
<feFlood flood-opacity="0" result="BackgroundImageFix"/>
<feColorMatrix in="SourceAlpha" type="matrix" values="0 0 0 0 0 0 0 0 0 0 0 0 0 0 0 0 0 0 127 0" result="hardAlpha"/>
<feOffset dx="4" dy="4"/>
<feGaussianBlur stdDeviation="9"/>
<feComposite in2="hardAlpha" operator="out"/>
<feColorMatrix type="matrix" values="0 0 0 0 0 0 0 0 0 0 0 0 0 0 0 0 0 0 0.1 0"/>
<feBlend mode="normal" in2="BackgroundImageFix" result="effect1_dropShadow_115_82"/>
<feBlend mode="normal" in="SourceGraphic" in2="effect1_dropShadow_115_82" result="shape"/>
</filter>
</defs>
</svg>
