<svg width="122" height="68" viewBox="0 0 122 68" fill="none" xmlns="http://www.w3.org/2000/svg">
<g filter="url(#filter0_d_116_289)">
<rect x="14" y="14" width="86" height="32" rx="8" fill="white"/>
<rect x="14.5" y="14.5" width="85" height="31" rx="7.5" stroke="#BCBEC0"/>
</g>
<path d="M35 26.5H31C29.067 26.5 27.5 24.933 27.5 23C27.5 21.067 29.067 19.5 31 19.5H35V26.5Z" fill="#E64A19"/>
<path d="M34.5 33.5H31C29.067 33.5 27.5 31.933 27.5 30C27.5 28.067 29.067 26.5 31 26.5H34.5V33.5Z" fill="#7C4DFF"/>
<path d="M31 40.5C29.067 40.5 27.5 38.933 27.5 37C27.5 35.067 29.067 33.5 31 33.5H34.5V37C34.5 38.933 32.933 40.5 31 40.5Z" fill="#66BB6A"/>
<path d="M38 26.5H34.5V19.5H38C39.933 19.5 41.5 21.067 41.5 23C41.5 24.933 39.933 26.5 38 26.5Z" fill="#FF7043"/>
<path d="M38 33.5C39.933 33.5 41.5 31.933 41.5 30C41.5 28.067 39.933 26.5 38 26.5C36.067 26.5 34.5 28.067 34.5 30C34.5 31.933 36.067 33.5 38 33.5Z" fill="#29B6F6"/>
<path d="M55.14 34V25.228H60.3V26.212H56.196V29.128H59.988V30.112H56.22V34H55.14ZM62.2153 34V33.016H64.5553V28.384H62.5153V27.4H65.6353V33.016H67.8553V34H62.2153ZM64.9753 26.212C64.7113 26.212 64.5033 26.144 64.3513 26.008C64.1993 25.872 64.1233 25.688 64.1233 25.456C64.1233 25.216 64.1993 25.028 64.3513 24.892C64.5033 24.748 64.7113 24.676 64.9753 24.676C65.2393 24.676 65.4473 24.748 65.5993 24.892C65.7513 25.028 65.8273 25.216 65.8273 25.456C65.8273 25.688 65.7513 25.872 65.5993 26.008C65.4473 26.144 65.2393 26.212 64.9753 26.212ZM70.3226 36.16V35.176H72.4226C72.7586 35.176 73.0026 35.1 73.1546 34.948C73.3146 34.796 73.3946 34.56 73.3946 34.24V33.4L73.4186 32.2H73.2026L73.4066 32.02C73.4066 32.5 73.2466 32.88 72.9266 33.16C72.6066 33.44 72.1786 33.58 71.6426 33.58C70.9626 33.58 70.4266 33.36 70.0346 32.92C69.6426 32.472 69.4466 31.872 69.4466 31.12V29.728C69.4466 28.976 69.6426 28.38 70.0346 27.94C70.4266 27.5 70.9626 27.28 71.6426 27.28C72.1786 27.28 72.6066 27.42 72.9266 27.7C73.2466 27.98 73.4066 28.36 73.4066 28.84L73.2026 28.66H73.4066V27.4H74.4746V34.24C74.4746 34.832 74.2906 35.3 73.9226 35.644C73.5626 35.988 73.0586 36.16 72.4106 36.16H70.3226ZM71.9666 32.644C72.4146 32.644 72.7666 32.504 73.0226 32.224C73.2786 31.944 73.4066 31.556 73.4066 31.06V29.8C73.4066 29.304 73.2786 28.916 73.0226 28.636C72.7666 28.356 72.4146 28.216 71.9666 28.216C71.5106 28.216 71.1546 28.352 70.8986 28.624C70.6506 28.896 70.5266 29.288 70.5266 29.8V31.06C70.5266 31.572 70.6506 31.964 70.8986 32.236C71.1546 32.508 71.5106 32.644 71.9666 32.644ZM76.3779 34V27.4H77.3259V28.192H77.5419L77.3739 28.48C77.3739 28.112 77.4699 27.82 77.6619 27.604C77.8619 27.388 78.1299 27.28 78.4659 27.28C78.8339 27.28 79.1179 27.416 79.3179 27.688C79.5179 27.96 79.6179 28.344 79.6179 28.84L79.2939 28.192H79.7979L79.5699 28.48C79.5699 28.112 79.6699 27.82 79.8699 27.604C80.0779 27.388 80.3499 27.28 80.6859 27.28C81.1019 27.28 81.4219 27.436 81.6459 27.748C81.8779 28.06 81.9939 28.472 81.9939 28.984V34H80.9979V28.972C80.9979 28.7 80.9379 28.488 80.8179 28.336C80.7059 28.184 80.5379 28.108 80.3139 28.108C80.0979 28.108 79.9259 28.184 79.7979 28.336C79.6779 28.48 79.6179 28.688 79.6179 28.96V34H78.7539V28.972C78.7539 28.692 78.6899 28.48 78.5619 28.336C78.4419 28.184 78.2699 28.108 78.0459 28.108C77.8219 28.108 77.6539 28.184 77.5419 28.336C77.4299 28.48 77.3739 28.688 77.3739 28.96V34H76.3779ZM85.8053 34.12C85.1093 34.12 84.5613 33.944 84.1613 33.592C83.7613 33.232 83.5613 32.748 83.5613 32.14C83.5613 31.524 83.7613 31.04 84.1613 30.688C84.5613 30.336 85.1013 30.16 85.7812 30.16H87.8213V29.5C87.8213 29.092 87.6973 28.78 87.4493 28.564C87.2093 28.34 86.8653 28.228 86.4173 28.228C86.0253 28.228 85.6973 28.312 85.4333 28.48C85.1693 28.64 85.0173 28.86 84.9773 29.14H83.8973C83.9693 28.572 84.2373 28.12 84.7013 27.784C85.1653 27.448 85.7453 27.28 86.4413 27.28C87.2013 27.28 87.8013 27.476 88.2413 27.868C88.6813 28.26 88.9013 28.792 88.9013 29.464V34H87.8453V32.74H87.6653L87.8453 32.56C87.8453 33.04 87.6573 33.42 87.2813 33.7C86.9133 33.98 86.4213 34.12 85.8053 34.12ZM86.0693 33.268C86.5813 33.268 87.0013 33.14 87.3293 32.884C87.6573 32.628 87.8213 32.3 87.8213 31.9V30.964H85.8053C85.4453 30.964 85.1613 31.064 84.9533 31.264C84.7453 31.464 84.6413 31.736 84.6413 32.08C84.6413 32.448 84.7653 32.74 85.0133 32.956C85.2693 33.164 85.6213 33.268 86.0693 33.268Z" fill="#4F4D4D"/>
<defs>
<filter id="filter0_d_116_289" x="0" y="0" width="122" height="68" filterUnits="userSpaceOnUse" color-interpolation-filters="sRGB">
<feFlood flood-opacity="0" result="BackgroundImageFix"/>
<feColorMatrix in="SourceAlpha" type="matrix" values="0 0 0 0 0 0 0 0 0 0 0 0 0 0 0 0 0 0 127 0" result="hardAlpha"/>
<feOffset dx="4" dy="4"/>
<feGaussianBlur stdDeviation="9"/>
<feComposite in2="hardAlpha" operator="out"/>
<feColorMatrix type="matrix" values="0 0 0 0 0 0 0 0 0 0 0 0 0 0 0 0 0 0 0.1 0"/>
<feBlend mode="normal" in2="BackgroundImageFix" result="effect1_dropShadow_116_289"/>
<feBlend mode="normal" in="SourceGraphic" in2="effect1_dropShadow_116_289" result="shape"/>
</filter>
</defs>
</svg>
