<svg width="86" height="32" viewBox="0 0 86 32" fill="none" xmlns="http://www.w3.org/2000/svg">
<style>
        rect {
             fill: #00000; <!-- set icon color for light mode -->
        }
        path {
      fill: #00000; <!-- set icon color for light mode -->
    }

      svg {
        background-color: white;
        color-scheme:light dark;
      }
      @media (prefers-color-scheme:dark) {
        svg {
          background-color: black;
        }
        rect {
             fill: #0d1117; <!-- set icon color for light mode -->
        }
        #gh-dark-mode-only{
      fill: #ffffff; <!-- set icon color for light mode -->
    }

      }
    </style>
<rect x="0.5" y="0.5" width="85" height="31" rx="7.5" fill="white" stroke="#BCBEC0"/>
<path d="M21 12.5H17C15.067 12.5 13.5 10.933 13.5 9C13.5 7.067 15.067 5.5 17 5.5H21V12.5Z" fill="#E64A19"/>
<path d="M20.5 19.5H17C15.067 19.5 13.5 17.933 13.5 16C13.5 14.067 15.067 12.5 17 12.5H20.5V19.5Z" fill="#7C4DFF"/>
<path d="M17 26.5C15.067 26.5 13.5 24.933 13.5 23C13.5 21.067 15.067 19.5 17 19.5H20.5V23C20.5 24.933 18.933 26.5 17 26.5Z" fill="#66BB6A"/>
<path d="M24 12.5H20.5V5.5H24C25.933 5.5 27.5 7.067 27.5 9C27.5 10.933 25.933 12.5 24 12.5Z" fill="#FF7043"/>
<path d="M24 19.5C25.933 19.5 27.5 17.933 27.5 16C27.5 14.067 25.933 12.5 24 12.5C22.067 12.5 20.5 14.067 20.5 16C20.5 17.933 22.067 19.5 24 19.5Z" fill="#29B6F6"/>
<path id="gh-dark-mode-only" d="M41.14 20V11.228H46.3V12.212H42.196V15.128H45.988V16.112H42.22V20H41.14ZM48.2153 20V19.016H50.5553V14.384H48.5153V13.4H51.6353V19.016H53.8553V20H48.2153ZM50.9753 12.212C50.7113 12.212 50.5033 12.144 50.3513 12.008C50.1993 11.872 50.1233 11.688 50.1233 11.456C50.1233 11.216 50.1993 11.028 50.3513 10.892C50.5033 10.748 50.7113 10.676 50.9753 10.676C51.2393 10.676 51.4473 10.748 51.5993 10.892C51.7513 11.028 51.8273 11.216 51.8273 11.456C51.8273 11.688 51.7513 11.872 51.5993 12.008C51.4473 12.144 51.2393 12.212 50.9753 12.212ZM56.3226 22.16V21.176H58.4226C58.7586 21.176 59.0026 21.1 59.1546 20.948C59.3146 20.796 59.3946 20.56 59.3946 20.24V19.4L59.4186 18.2H59.2026L59.4066 18.02C59.4066 18.5 59.2466 18.88 58.9266 19.16C58.6066 19.44 58.1786 19.58 57.6426 19.58C56.9626 19.58 56.4266 19.36 56.0346 18.92C55.6426 18.472 55.4466 17.872 55.4466 17.12V15.728C55.4466 14.976 55.6426 14.38 56.0346 13.94C56.4266 13.5 56.9626 13.28 57.6426 13.28C58.1786 13.28 58.6066 13.42 58.9266 13.7C59.2466 13.98 59.4066 14.36 59.4066 14.84L59.2026 14.66H59.4066V13.4H60.4746V20.24C60.4746 20.832 60.2906 21.3 59.9226 21.644C59.5626 21.988 59.0586 22.16 58.4106 22.16H56.3226ZM57.9666 18.644C58.4146 18.644 58.7666 18.504 59.0226 18.224C59.2786 17.944 59.4066 17.556 59.4066 17.06V15.8C59.4066 15.304 59.2786 14.916 59.0226 14.636C58.7666 14.356 58.4146 14.216 57.9666 14.216C57.5106 14.216 57.1546 14.352 56.8986 14.624C56.6506 14.896 56.5266 15.288 56.5266 15.8V17.06C56.5266 17.572 56.6506 17.964 56.8986 18.236C57.1546 18.508 57.5106 18.644 57.9666 18.644ZM62.3779 20V13.4H63.3259V14.192H63.5419L63.3739 14.48C63.3739 14.112 63.4699 13.82 63.6619 13.604C63.8619 13.388 64.1299 13.28 64.4659 13.28C64.8339 13.28 65.1179 13.416 65.3179 13.688C65.5179 13.96 65.6179 14.344 65.6179 14.84L65.2939 14.192H65.7979L65.5699 14.48C65.5699 14.112 65.6699 13.82 65.8699 13.604C66.0779 13.388 66.3499 13.28 66.6859 13.28C67.1019 13.28 67.4219 13.436 67.6459 13.748C67.8779 14.06 67.9939 14.472 67.9939 14.984V20H66.9979V14.972C66.9979 14.7 66.9379 14.488 66.8179 14.336C66.7059 14.184 66.5379 14.108 66.3139 14.108C66.0979 14.108 65.9259 14.184 65.7979 14.336C65.6779 14.48 65.6179 14.688 65.6179 14.96V20H64.7539V14.972C64.7539 14.692 64.6899 14.48 64.5619 14.336C64.4419 14.184 64.2699 14.108 64.0459 14.108C63.8219 14.108 63.6539 14.184 63.5419 14.336C63.4299 14.48 63.3739 14.688 63.3739 14.96V20H62.3779ZM71.8053 20.12C71.1093 20.12 70.5613 19.944 70.1613 19.592C69.7613 19.232 69.5613 18.748 69.5613 18.14C69.5613 17.524 69.7613 17.04 70.1613 16.688C70.5613 16.336 71.1013 16.16 71.7812 16.16H73.8213V15.5C73.8213 15.092 73.6973 14.78 73.4493 14.564C73.2093 14.34 72.8653 14.228 72.4173 14.228C72.0253 14.228 71.6973 14.312 71.4333 14.48C71.1693 14.64 71.0173 14.86 70.9773 15.14H69.8973C69.9693 14.572 70.2373 14.12 70.7013 13.784C71.1653 13.448 71.7453 13.28 72.4413 13.28C73.2013 13.28 73.8013 13.476 74.2413 13.868C74.6813 14.26 74.9013 14.792 74.9013 15.464V20H73.8453V18.74H73.6653L73.8453 18.56C73.8453 19.04 73.6573 19.42 73.2813 19.7C72.9133 19.98 72.4213 20.12 71.8053 20.12ZM72.0693 19.268C72.5813 19.268 73.0013 19.14 73.3293 18.884C73.6573 18.628 73.8213 18.3 73.8213 17.9V16.964H71.8053C71.4453 16.964 71.1613 17.064 70.9533 17.264C70.7453 17.464 70.6413 17.736 70.6413 18.08C70.6413 18.448 70.7653 18.74 71.0133 18.956C71.2693 19.164 71.6213 19.268 72.0693 19.268Z" fill="#4F4D4D"/>
</svg>
