<svg width="116" height="32" viewBox="0 0 116 32" fill="none" xmlns="http://www.w3.org/2000/svg">
<style>
        rect {
             fill: #00000; <!-- set icon color for light mode -->
        }
        path {
      fill: #00000; <!-- set icon color for light mode -->
    }

      svg {
        background-color: white;
        color-scheme:light dark;
      }
      @media (prefers-color-scheme:dark) {
        svg {
          background-color: black;
        }
        rect {
             fill: #0d1117; <!-- set icon color for light mode -->
        }
        #gh-dark-mode-only{
      fill: #ffffff; <!-- set icon color for light mode -->
    }

      }
    </style>
<rect x="0.5" y="0.5" width="115" height="31" rx="7.5" fill="white" stroke="#BCBEC0"/>
<path d="M11 25V7H29V25H11Z" fill="#FFD600"/>
<path d="M22.769 20.4735C23.115 21.0355 23.491 21.574 24.2875 21.574C24.9565 21.574 25.3075 21.2415 25.3075 20.7815C25.3075 20.231 24.9445 20.0355 24.2085 19.715L23.805 19.543C22.6405 19.049 21.866 18.43 21.866 17.1225C21.866 15.9175 22.7885 15.0005 24.23 15.0005C25.2565 15.0005 25.994 15.356 26.526 16.287L25.269 17.0905C24.9925 16.5965 24.6935 16.402 24.23 16.402C23.757 16.402 23.4575 16.7005 23.4575 17.0905C23.4575 17.5725 23.7575 17.7675 24.45 18.066L24.8535 18.238C26.226 18.8225 27 19.4195 27 20.7615C27 22.2075 25.858 23 24.325 23C22.8255 23 21.974 22.2475 21.5 21.316L22.769 20.4735ZM16.976 20.5145C17.229 20.9675 17.6135 21.316 18.1665 21.316C18.6955 21.316 19 21.107 19 20.2945V15H20.6665V20.5505C20.6665 22.234 19.69 23 18.264 23C16.9755 23 16.0455 22.127 15.6665 21.316L16.976 20.5145Z" fill="#000001"/>
<path id="gh-dark-mode-only" d="M43.24 20.12C42.4 20.12 41.74 19.884 41.26 19.412C40.78 18.94 40.54 18.296 40.54 17.48H41.62C41.62 18.016 41.76 18.432 42.04 18.728C42.328 19.016 42.728 19.16 43.24 19.16C43.752 19.16 44.148 19.016 44.428 18.728C44.716 18.432 44.86 18.016 44.86 17.48V12.224H42.76V11.24H45.94V17.48C45.94 18.296 45.696 18.94 45.208 19.412C44.728 19.884 44.072 20.12 43.24 20.12ZM50.2193 20.12C49.5233 20.12 48.9753 19.944 48.5753 19.592C48.1753 19.232 47.9753 18.748 47.9753 18.14C47.9753 17.524 48.1753 17.04 48.5753 16.688C48.9753 16.336 49.5153 16.16 50.1953 16.16H52.2353V15.5C52.2353 15.092 52.1113 14.78 51.8633 14.564C51.6233 14.34 51.2793 14.228 50.8313 14.228C50.4393 14.228 50.1113 14.312 49.8473 14.48C49.5833 14.64 49.4313 14.86 49.3913 15.14H48.3113C48.3833 14.572 48.6513 14.12 49.1153 13.784C49.5793 13.448 50.1593 13.28 50.8553 13.28C51.6153 13.28 52.2153 13.476 52.6553 13.868C53.0953 14.26 53.3153 14.792 53.3153 15.464V20H52.2593V18.74H52.0793L52.2593 18.56C52.2593 19.04 52.0713 19.42 51.6953 19.7C51.3273 19.98 50.8353 20.12 50.2193 20.12ZM50.4833 19.268C50.9953 19.268 51.4153 19.14 51.7433 18.884C52.0713 18.628 52.2353 18.3 52.2353 17.9V16.964H50.2193C49.8593 16.964 49.5753 17.064 49.3673 17.264C49.1593 17.464 49.0553 17.736 49.0553 18.08C49.0553 18.448 49.1793 18.74 49.4273 18.956C49.6833 19.164 50.0353 19.268 50.4833 19.268ZM57.2586 20L55.0506 13.4H56.1546L57.6186 17.84C57.7066 18.104 57.7866 18.36 57.8586 18.608C57.9306 18.848 57.9826 19.036 58.0146 19.172C58.0546 19.036 58.1106 18.848 58.1826 18.608C58.2546 18.36 58.3306 18.104 58.4106 17.84L59.8386 13.4H60.9306L58.7226 20H57.2586ZM64.6099 20.12C63.9139 20.12 63.3659 19.944 62.9659 19.592C62.5659 19.232 62.3659 18.748 62.3659 18.14C62.3659 17.524 62.5659 17.04 62.9659 16.688C63.3659 16.336 63.9059 16.16 64.5859 16.16H66.6259V15.5C66.6259 15.092 66.5019 14.78 66.2539 14.564C66.0139 14.34 65.6699 14.228 65.2219 14.228C64.8299 14.228 64.5019 14.312 64.2379 14.48C63.9739 14.64 63.8219 14.86 63.7819 15.14H62.7019C62.7739 14.572 63.0419 14.12 63.5059 13.784C63.9699 13.448 64.5499 13.28 65.2459 13.28C66.0059 13.28 66.6059 13.476 67.0459 13.868C67.4859 14.26 67.7059 14.792 67.7059 15.464V20H66.6499V18.74H66.4699L66.6499 18.56C66.6499 19.04 66.4619 19.42 66.0859 19.7C65.7179 19.98 65.2259 20.12 64.6099 20.12ZM64.8739 19.268C65.3859 19.268 65.8059 19.14 66.1339 18.884C66.4619 18.628 66.6259 18.3 66.6259 17.9V16.964H64.6099C64.2499 16.964 63.9659 17.064 63.7579 17.264C63.5499 17.464 63.4459 17.736 63.4459 18.08C63.4459 18.448 63.5699 18.74 63.8179 18.956C64.0739 19.164 64.4259 19.268 64.8739 19.268ZM72.4293 20.12C71.8533 20.12 71.3573 20.024 70.9413 19.832C70.5333 19.64 70.2173 19.364 69.9933 19.004C69.7693 18.644 69.6533 18.216 69.6453 17.72H70.7253C70.7253 18.16 70.8733 18.508 71.1693 18.764C71.4733 19.02 71.8933 19.148 72.4293 19.148C72.9333 19.148 73.3253 19.024 73.6053 18.776C73.8933 18.528 74.0373 18.184 74.0373 17.744C74.0373 17.392 73.9413 17.084 73.7493 16.82C73.5653 16.556 73.2973 16.372 72.9453 16.268L71.7573 15.896C71.1573 15.712 70.6933 15.404 70.3652 14.972C70.0453 14.54 69.8853 14.032 69.8853 13.448C69.8853 12.976 69.9893 12.568 70.1973 12.224C70.4133 11.872 70.7133 11.6 71.0973 11.408C71.4813 11.208 71.9333 11.108 72.4533 11.108C73.2213 11.108 73.8373 11.324 74.3013 11.756C74.7653 12.18 75.0013 12.748 75.0093 13.46H73.9293C73.9293 13.028 73.7973 12.692 73.5333 12.452C73.2773 12.204 72.9133 12.08 72.4413 12.08C71.9773 12.08 71.6133 12.192 71.3493 12.416C71.0933 12.64 70.9653 12.952 70.9653 13.352C70.9653 13.712 71.0613 14.024 71.2533 14.288C71.4453 14.552 71.7213 14.74 72.0813 14.852L73.2813 15.236C73.8653 15.42 74.3173 15.732 74.6373 16.172C74.9573 16.612 75.1172 17.128 75.1172 17.72C75.1172 18.2 75.0052 18.62 74.7812 18.98C74.5573 19.34 74.2413 19.62 73.8333 19.82C73.4333 20.02 72.9653 20.12 72.4293 20.12ZM77.3086 20V13.4H78.3646V14.66H78.6166L78.2686 15.44C78.2686 14.728 78.4206 14.192 78.7246 13.832C79.0366 13.464 79.4966 13.28 80.1046 13.28C80.8006 13.28 81.3526 13.5 81.7606 13.94C82.1766 14.372 82.3846 14.96 82.3846 15.704V16.1H81.3046V15.8C81.3046 15.28 81.1766 14.884 80.9206 14.612C80.6726 14.332 80.3166 14.192 79.8526 14.192C79.3966 14.192 79.0366 14.332 78.7726 14.612C78.5166 14.892 78.3886 15.288 78.3886 15.8V20H77.3086ZM84.1919 20V19.016H86.5319V14.384H84.4919V13.4H87.6119V19.016H89.8319V20H84.1919ZM86.9519 12.212C86.6879 12.212 86.4799 12.144 86.3279 12.008C86.1759 11.872 86.0999 11.688 86.0999 11.456C86.0999 11.216 86.1759 11.028 86.3279 10.892C86.4799 10.748 86.6879 10.676 86.9519 10.676C87.2159 10.676 87.4239 10.748 87.5759 10.892C87.7279 11.028 87.8039 11.216 87.8039 11.456C87.8039 11.688 87.7279 11.872 87.5759 12.008C87.4239 12.144 87.2159 12.212 86.9519 12.212ZM91.4712 22.16V13.4H92.5512V14.66H92.7672L92.5512 14.912C92.5512 14.408 92.7152 14.012 93.0432 13.724C93.3792 13.428 93.8192 13.28 94.3632 13.28C95.0272 13.28 95.5552 13.5 95.9472 13.94C96.3472 14.372 96.5472 14.968 96.5472 15.728V17.66C96.5472 18.164 96.4552 18.6 96.2712 18.968C96.0952 19.336 95.8432 19.62 95.5152 19.82C95.1952 20.02 94.8112 20.12 94.3632 20.12C93.8272 20.12 93.3912 19.972 93.0552 19.676C92.7192 19.38 92.5512 18.984 92.5512 18.488L92.7672 18.74H92.5272L92.5512 20.24V22.16H91.4712ZM94.0032 19.184C94.4592 19.184 94.8152 19.048 95.0712 18.776C95.3352 18.504 95.4672 18.112 95.4672 17.6V15.8C95.4672 15.288 95.3352 14.896 95.0712 14.624C94.8152 14.352 94.4592 14.216 94.0032 14.216C93.5632 14.216 93.2112 14.356 92.9472 14.636C92.6832 14.916 92.5512 15.304 92.5512 15.8V17.6C92.5512 18.096 92.6832 18.484 92.9472 18.764C93.2112 19.044 93.5632 19.184 94.0032 19.184ZM101.883 20C101.315 20 100.871 19.848 100.551 19.544C100.239 19.24 100.083 18.812 100.083 18.26V14.384H98.2225V13.4H100.083V11.54H101.163V13.4H103.803V14.384H101.163V18.26C101.163 18.764 101.403 19.016 101.883 19.016H103.683V20H101.883Z" fill="#4F4D4D"/>
</svg>
