<svg width="152" height="68" viewBox="0 0 152 68" fill="none" xmlns="http://www.w3.org/2000/svg">
<g filter="url(#filter0_d_116_227)">
<rect x="14" y="14" width="116" height="32" rx="8" fill="white"/>
<rect x="14.5" y="14.5" width="115" height="31" rx="7.5" stroke="#BCBEC0"/>
</g>
<path d="M25 39V21H43V39H25Z" fill="#FFD600"/>
<path d="M36.769 34.4735C37.115 35.0355 37.491 35.574 38.2875 35.574C38.9565 35.574 39.3075 35.2415 39.3075 34.7815C39.3075 34.231 38.9445 34.0355 38.2085 33.715L37.805 33.543C36.6405 33.049 35.866 32.43 35.866 31.1225C35.866 29.9175 36.7885 29.0005 38.23 29.0005C39.2565 29.0005 39.994 29.356 40.526 30.287L39.269 31.0905C38.9925 30.5965 38.6935 30.402 38.23 30.402C37.757 30.402 37.4575 30.7005 37.4575 31.0905C37.4575 31.5725 37.7575 31.7675 38.45 32.066L38.8535 32.238C40.226 32.8225 41 33.4195 41 34.7615C41 36.2075 39.858 37 38.325 37C36.8255 37 35.974 36.2475 35.5 35.316L36.769 34.4735ZM30.976 34.5145C31.229 34.9675 31.6135 35.316 32.1665 35.316C32.6955 35.316 33 35.107 33 34.2945V29H34.6665V34.5505C34.6665 36.234 33.69 37 32.264 37C30.9755 37 30.0455 36.127 29.6665 35.316L30.976 34.5145Z" fill="#000001"/>
<path d="M57.24 34.12C56.4 34.12 55.74 33.884 55.26 33.412C54.78 32.94 54.54 32.296 54.54 31.48H55.62C55.62 32.016 55.76 32.432 56.04 32.728C56.328 33.016 56.728 33.16 57.24 33.16C57.752 33.16 58.148 33.016 58.428 32.728C58.716 32.432 58.86 32.016 58.86 31.48V26.224H56.76V25.24H59.94V31.48C59.94 32.296 59.696 32.94 59.208 33.412C58.728 33.884 58.072 34.12 57.24 34.12ZM64.2193 34.12C63.5233 34.12 62.9753 33.944 62.5753 33.592C62.1753 33.232 61.9753 32.748 61.9753 32.14C61.9753 31.524 62.1753 31.04 62.5753 30.688C62.9753 30.336 63.5153 30.16 64.1953 30.16H66.2353V29.5C66.2353 29.092 66.1113 28.78 65.8633 28.564C65.6233 28.34 65.2793 28.228 64.8313 28.228C64.4393 28.228 64.1113 28.312 63.8473 28.48C63.5833 28.64 63.4313 28.86 63.3913 29.14H62.3113C62.3833 28.572 62.6513 28.12 63.1153 27.784C63.5793 27.448 64.1593 27.28 64.8553 27.28C65.6153 27.28 66.2153 27.476 66.6553 27.868C67.0953 28.26 67.3153 28.792 67.3153 29.464V34H66.2593V32.74H66.0793L66.2593 32.56C66.2593 33.04 66.0713 33.42 65.6953 33.7C65.3273 33.98 64.8353 34.12 64.2193 34.12ZM64.4833 33.268C64.9953 33.268 65.4153 33.14 65.7433 32.884C66.0713 32.628 66.2353 32.3 66.2353 31.9V30.964H64.2193C63.8593 30.964 63.5753 31.064 63.3673 31.264C63.1593 31.464 63.0553 31.736 63.0553 32.08C63.0553 32.448 63.1793 32.74 63.4273 32.956C63.6833 33.164 64.0353 33.268 64.4833 33.268ZM71.2586 34L69.0506 27.4H70.1546L71.6186 31.84C71.7066 32.104 71.7866 32.36 71.8586 32.608C71.9306 32.848 71.9826 33.036 72.0146 33.172C72.0546 33.036 72.1106 32.848 72.1826 32.608C72.2546 32.36 72.3306 32.104 72.4106 31.84L73.8386 27.4H74.9306L72.7226 34H71.2586ZM78.6099 34.12C77.9139 34.12 77.3659 33.944 76.9659 33.592C76.5659 33.232 76.3659 32.748 76.3659 32.14C76.3659 31.524 76.5659 31.04 76.9659 30.688C77.3659 30.336 77.9059 30.16 78.5859 30.16H80.6259V29.5C80.6259 29.092 80.5019 28.78 80.2539 28.564C80.0139 28.34 79.6699 28.228 79.2219 28.228C78.8299 28.228 78.5019 28.312 78.2379 28.48C77.9739 28.64 77.8219 28.86 77.7819 29.14H76.7019C76.7739 28.572 77.0419 28.12 77.5059 27.784C77.9699 27.448 78.5499 27.28 79.2459 27.28C80.0059 27.28 80.6059 27.476 81.0459 27.868C81.4859 28.26 81.7059 28.792 81.7059 29.464V34H80.6499V32.74H80.4699L80.6499 32.56C80.6499 33.04 80.4619 33.42 80.0859 33.7C79.7179 33.98 79.2259 34.12 78.6099 34.12ZM78.8739 33.268C79.3859 33.268 79.8059 33.14 80.1339 32.884C80.4619 32.628 80.6259 32.3 80.6259 31.9V30.964H78.6099C78.2499 30.964 77.9659 31.064 77.7579 31.264C77.5499 31.464 77.4459 31.736 77.4459 32.08C77.4459 32.448 77.5699 32.74 77.8179 32.956C78.0739 33.164 78.4259 33.268 78.8739 33.268ZM86.4293 34.12C85.8533 34.12 85.3573 34.024 84.9413 33.832C84.5333 33.64 84.2173 33.364 83.9933 33.004C83.7693 32.644 83.6533 32.216 83.6453 31.72H84.7253C84.7253 32.16 84.8733 32.508 85.1693 32.764C85.4733 33.02 85.8933 33.148 86.4293 33.148C86.9333 33.148 87.3253 33.024 87.6053 32.776C87.8933 32.528 88.0373 32.184 88.0373 31.744C88.0373 31.392 87.9413 31.084 87.7493 30.82C87.5653 30.556 87.2973 30.372 86.9453 30.268L85.7573 29.896C85.1573 29.712 84.6933 29.404 84.3652 28.972C84.0453 28.54 83.8853 28.032 83.8853 27.448C83.8853 26.976 83.9893 26.568 84.1973 26.224C84.4133 25.872 84.7133 25.6 85.0973 25.408C85.4813 25.208 85.9333 25.108 86.4533 25.108C87.2213 25.108 87.8373 25.324 88.3013 25.756C88.7653 26.18 89.0013 26.748 89.0093 27.46H87.9293C87.9293 27.028 87.7973 26.692 87.5333 26.452C87.2773 26.204 86.9133 26.08 86.4413 26.08C85.9773 26.08 85.6133 26.192 85.3493 26.416C85.0933 26.64 84.9653 26.952 84.9653 27.352C84.9653 27.712 85.0613 28.024 85.2533 28.288C85.4453 28.552 85.7213 28.74 86.0813 28.852L87.2813 29.236C87.8653 29.42 88.3173 29.732 88.6373 30.172C88.9573 30.612 89.1172 31.128 89.1172 31.72C89.1172 32.2 89.0052 32.62 88.7812 32.98C88.5573 33.34 88.2413 33.62 87.8333 33.82C87.4333 34.02 86.9653 34.12 86.4293 34.12ZM91.3086 34V27.4H92.3646V28.66H92.6166L92.2686 29.44C92.2686 28.728 92.4206 28.192 92.7246 27.832C93.0366 27.464 93.4966 27.28 94.1046 27.28C94.8006 27.28 95.3526 27.5 95.7606 27.94C96.1766 28.372 96.3846 28.96 96.3846 29.704V30.1H95.3046V29.8C95.3046 29.28 95.1766 28.884 94.9206 28.612C94.6726 28.332 94.3166 28.192 93.8526 28.192C93.3966 28.192 93.0366 28.332 92.7726 28.612C92.5166 28.892 92.3886 29.288 92.3886 29.8V34H91.3086ZM98.1919 34V33.016H100.532V28.384H98.4919V27.4H101.612V33.016H103.832V34H98.1919ZM100.952 26.212C100.688 26.212 100.48 26.144 100.328 26.008C100.176 25.872 100.1 25.688 100.1 25.456C100.1 25.216 100.176 25.028 100.328 24.892C100.48 24.748 100.688 24.676 100.952 24.676C101.216 24.676 101.424 24.748 101.576 24.892C101.728 25.028 101.804 25.216 101.804 25.456C101.804 25.688 101.728 25.872 101.576 26.008C101.424 26.144 101.216 26.212 100.952 26.212ZM105.471 36.16V27.4H106.551V28.66H106.767L106.551 28.912C106.551 28.408 106.715 28.012 107.043 27.724C107.379 27.428 107.819 27.28 108.363 27.28C109.027 27.28 109.555 27.5 109.947 27.94C110.347 28.372 110.547 28.968 110.547 29.728V31.66C110.547 32.164 110.455 32.6 110.271 32.968C110.095 33.336 109.843 33.62 109.515 33.82C109.195 34.02 108.811 34.12 108.363 34.12C107.827 34.12 107.391 33.972 107.055 33.676C106.719 33.38 106.551 32.984 106.551 32.488L106.767 32.74H106.527L106.551 34.24V36.16H105.471ZM108.003 33.184C108.459 33.184 108.815 33.048 109.071 32.776C109.335 32.504 109.467 32.112 109.467 31.6V29.8C109.467 29.288 109.335 28.896 109.071 28.624C108.815 28.352 108.459 28.216 108.003 28.216C107.563 28.216 107.211 28.356 106.947 28.636C106.683 28.916 106.551 29.304 106.551 29.8V31.6C106.551 32.096 106.683 32.484 106.947 32.764C107.211 33.044 107.563 33.184 108.003 33.184ZM115.883 34C115.315 34 114.871 33.848 114.551 33.544C114.239 33.24 114.083 32.812 114.083 32.26V28.384H112.223V27.4H114.083V25.54H115.163V27.4H117.803V28.384H115.163V32.26C115.163 32.764 115.403 33.016 115.883 33.016H117.683V34H115.883Z" fill="#4F4D4D"/>
<defs>
<filter id="filter0_d_116_227" x="0" y="0" width="152" height="68" filterUnits="userSpaceOnUse" color-interpolation-filters="sRGB">
<feFlood flood-opacity="0" result="BackgroundImageFix"/>
<feColorMatrix in="SourceAlpha" type="matrix" values="0 0 0 0 0 0 0 0 0 0 0 0 0 0 0 0 0 0 127 0" result="hardAlpha"/>
<feOffset dx="4" dy="4"/>
<feGaussianBlur stdDeviation="9"/>
<feComposite in2="hardAlpha" operator="out"/>
<feColorMatrix type="matrix" values="0 0 0 0 0 0 0 0 0 0 0 0 0 0 0 0 0 0 0.1 0"/>
<feBlend mode="normal" in2="BackgroundImageFix" result="effect1_dropShadow_116_227"/>
<feBlend mode="normal" in="SourceGraphic" in2="effect1_dropShadow_116_227" result="shape"/>
</filter>
</defs>
</svg>
