<svg width="81" id="gh-dark-mode-only" height="32" viewBox="0 0 81 32" fill="none" xmlns="http://www.w3.org/2000/svg">
<style>
        rect {
             fill: #00000; <!-- set icon color for light mode -->
        }
        path {
      fill: #00000; <!-- set icon color for light mode -->
    }

      svg {
        background-color: white;
        color-scheme:light dark;
      }
      @media (prefers-color-scheme:dark) {
        svg {
          background-color: black;
        }
        rect {
             fill: #0d1117; <!-- set icon color for light mode -->
        }
        #gh-dark-mode-only{
      fill: #ffffff; <!-- set icon color for light mode -->
    }

      }
    </style>


<rect x="0.5" y="0.5" width="80" height="31" rx="7.5" fill="white" stroke="#BCBEC0"/>
<path d="M19.8248 16.449C19.3258 15.6445 18.9638 14.9775 18.4623 13.7215C17.6143 11.6 23.6198 9.68301 21.1848 5.99951C22.2403 8.54401 17.3963 10.117 16.9463 12.236C16.5348 14.185 19.8223 16.449 19.8248 16.449Z" fill="#F44336"/>
<path d="M19.939 12.6349C19.843 13.8929 21.0535 14.5634 21.0885 15.4824C21.1165 16.2304 20.365 16.8539 20.365 16.8539C20.365 16.8539 21.729 16.5859 22.1545 15.4449C22.627 14.1779 21.2375 13.3104 21.3805 12.2959C21.514 11.3269 24.396 9.52441 24.396 9.52441C24.396 9.52441 20.1555 9.80541 19.939 12.6349Z" fill="#F44336"/>
<path d="M24.0418 16.5276C24.9188 16.3306 25.6583 16.8891 25.6583 17.5326C25.6583 18.9831 23.6478 20.3541 23.6478 20.3541C23.6478 20.3541 26.7603 19.9831 26.7603 17.6016C26.7603 16.0266 25.2318 15.6331 24.0418 16.5276ZM22.5643 17.6976C22.5643 17.6976 23.5348 17.0061 23.7933 16.7466C21.4118 17.2521 15.9743 17.3201 15.9743 16.8811C15.9743 16.4766 17.7278 16.0621 17.7278 16.0621C17.7278 16.0621 13.8413 16.0061 13.8413 17.1526C13.8413 18.3476 18.9288 18.4331 22.5643 17.6976Z" fill="#1565C0"/>
<path d="M21.9677 18.7856C19.7132 19.5351 15.5607 19.2956 16.7907 18.2891C16.1917 18.2891 15.3037 18.7706 15.3037 19.2336C15.3037 20.1621 19.7947 20.8791 23.1187 19.5196L21.9677 18.7856Z" fill="#1565C0"/>
<path d="M17.3431 20.3696C16.5251 20.3696 15.9956 20.8966 15.9956 21.2806C15.9956 22.4761 20.8756 22.5966 22.8091 21.3831L21.5801 20.5671C20.1356 21.2021 16.5071 21.2896 17.3431 20.3696Z" fill="#1565C0"/>
<path d="M26.1405 22.3162C26.1405 21.8482 25.613 21.6277 25.424 21.5222C26.538 24.2087 14.2655 24.0002 14.2655 22.4142C14.2655 22.0537 15.169 21.7007 16.004 21.8677L15.294 21.4482C13.63 21.1872 12.5 21.9187 12.5 22.5087C12.5 25.2602 26.1405 25.1277 26.1405 22.3162Z" fill="#1565C0"/>
<path d="M27.4998 23.302C25.4268 25.3495 20.1703 26.0955 14.8843 24.8305C20.1703 27.082 27.4748 25.814 27.4998 23.302Z" fill="#1565C0"/>
<path id="gh-dark-mode-only" d="M43.24 20.12C42.4 20.12 41.74 19.884 41.26 19.412C40.78 18.94 40.54 18.296 40.54 17.48H41.62C41.62 18.016 41.76 18.432 42.04 18.728C42.328 19.016 42.728 19.16 43.24 19.16C43.752 19.16 44.148 19.016 44.428 18.728C44.716 18.432 44.86 18.016 44.86 17.48V12.224H42.76V11.24H45.94V17.48C45.94 18.296 45.696 18.94 45.208 19.412C44.728 19.884 44.072 20.12 43.24 20.12ZM50.2193 20.12C49.5233 20.12 48.9753 19.944 48.5753 19.592C48.1753 19.232 47.9753 18.748 47.9753 18.14C47.9753 17.524 48.1753 17.04 48.5753 16.688C48.9753 16.336 49.5153 16.16 50.1953 16.16H52.2353V15.5C52.2353 15.092 52.1113 14.78 51.8633 14.564C51.6233 14.34 51.2793 14.228 50.8313 14.228C50.4393 14.228 50.1113 14.312 49.8473 14.48C49.5833 14.64 49.4313 14.86 49.3913 15.14H48.3113C48.3833 14.572 48.6513 14.12 49.1153 13.784C49.5793 13.448 50.1593 13.28 50.8553 13.28C51.6153 13.28 52.2153 13.476 52.6553 13.868C53.0953 14.26 53.3153 14.792 53.3153 15.464V20H52.2593V18.74H52.0793L52.2593 18.56C52.2593 19.04 52.0713 19.42 51.6953 19.7C51.3273 19.98 50.8353 20.12 50.2193 20.12ZM50.4833 19.268C50.9953 19.268 51.4153 19.14 51.7433 18.884C52.0713 18.628 52.2353 18.3 52.2353 17.9V16.964H50.2193C49.8593 16.964 49.5753 17.064 49.3673 17.264C49.1593 17.464 49.0553 17.736 49.0553 18.08C49.0553 18.448 49.1793 18.74 49.4273 18.956C49.6833 19.164 50.0353 19.268 50.4833 19.268ZM57.2586 20L55.0506 13.4H56.1546L57.6186 17.84C57.7066 18.104 57.7866 18.36 57.8586 18.608C57.9306 18.848 57.9826 19.036 58.0146 19.172C58.0546 19.036 58.1106 18.848 58.1826 18.608C58.2546 18.36 58.3306 18.104 58.4106 17.84L59.8386 13.4H60.9306L58.7226 20H57.2586ZM64.6099 20.12C63.9139 20.12 63.3659 19.944 62.9659 19.592C62.5659 19.232 62.3659 18.748 62.3659 18.14C62.3659 17.524 62.5659 17.04 62.9659 16.688C63.3659 16.336 63.9059 16.16 64.5859 16.16H66.6259V15.5C66.6259 15.092 66.5019 14.78 66.2539 14.564C66.0139 14.34 65.6699 14.228 65.2219 14.228C64.8299 14.228 64.5019 14.312 64.2379 14.48C63.9739 14.64 63.8219 14.86 63.7819 15.14H62.7019C62.7739 14.572 63.0419 14.12 63.5059 13.784C63.9699 13.448 64.5499 13.28 65.2459 13.28C66.0059 13.28 66.6059 13.476 67.0459 13.868C67.4859 14.26 67.7059 14.792 67.7059 15.464V20H66.6499V18.74H66.4699L66.6499 18.56C66.6499 19.04 66.4619 19.42 66.0859 19.7C65.7179 19.98 65.2259 20.12 64.6099 20.12ZM64.8739 19.268C65.3859 19.268 65.8059 19.14 66.1339 18.884C66.4619 18.628 66.6259 18.3 66.6259 17.9V16.964H64.6099C64.2499 16.964 63.9659 17.064 63.7579 17.264C63.5499 17.464 63.4459 17.736 63.4459 18.08C63.4459 18.448 63.5699 18.74 63.8179 18.956C64.0739 19.164 64.4259 19.268 64.8739 19.268Z" fill="#4F4D4D"/>
</svg>
