<svg width="117" height="68" viewBox="0 0 117 68" fill="none" xmlns="http://www.w3.org/2000/svg">
<g filter="url(#filter0_d_116_209)">
<rect x="14" y="14" width="81" height="32" rx="8" fill="white"/>
<rect x="14.5" y="14.5" width="80" height="31" rx="7.5" stroke="#BCBEC0"/>
</g>
<path d="M33.8248 30.449C33.3258 29.6445 32.9638 28.9775 32.4623 27.7215C31.6143 25.6 37.6198 23.683 35.1848 19.9995C36.2403 22.544 31.3963 24.117 30.9463 26.236C30.5348 28.185 33.8223 30.449 33.8248 30.449Z" fill="#F44336"/>
<path d="M33.939 26.6349C33.843 27.8929 35.0535 28.5634 35.0885 29.4824C35.1165 30.2304 34.365 30.8539 34.365 30.8539C34.365 30.8539 35.729 30.5859 36.1545 29.4449C36.627 28.1779 35.2375 27.3104 35.3805 26.2959C35.514 25.3269 38.396 23.5244 38.396 23.5244C38.396 23.5244 34.1555 23.8054 33.939 26.6349Z" fill="#F44336"/>
<path d="M38.0418 30.5276C38.9188 30.3306 39.6583 30.8891 39.6583 31.5326C39.6583 32.9831 37.6478 34.3541 37.6478 34.3541C37.6478 34.3541 40.7603 33.9831 40.7603 31.6016C40.7603 30.0266 39.2318 29.6331 38.0418 30.5276ZM36.5643 31.6976C36.5643 31.6976 37.5348 31.0061 37.7933 30.7466C35.4118 31.2521 29.9743 31.3201 29.9743 30.8811C29.9743 30.4766 31.7278 30.0621 31.7278 30.0621C31.7278 30.0621 27.8413 30.0061 27.8413 31.1526C27.8413 32.3476 32.9288 32.4331 36.5643 31.6976Z" fill="#1565C0"/>
<path d="M35.9677 32.7856C33.7132 33.5351 29.5607 33.2956 30.7907 32.2891C30.1917 32.2891 29.3037 32.7706 29.3037 33.2336C29.3037 34.1621 33.7947 34.8791 37.1187 33.5196L35.9677 32.7856Z" fill="#1565C0"/>
<path d="M31.3431 34.3696C30.5251 34.3696 29.9956 34.8966 29.9956 35.2806C29.9956 36.4761 34.8756 36.5966 36.8091 35.3831L35.5801 34.5671C34.1356 35.2021 30.5071 35.2896 31.3431 34.3696Z" fill="#1565C0"/>
<path d="M40.1405 36.3162C40.1405 35.8482 39.613 35.6277 39.424 35.5222C40.538 38.2087 28.2655 38.0002 28.2655 36.4142C28.2655 36.0537 29.169 35.7007 30.004 35.8677L29.294 35.4482C27.63 35.1872 26.5 35.9187 26.5 36.5087C26.5 39.2602 40.1405 39.1277 40.1405 36.3162Z" fill="#1565C0"/>
<path d="M41.4998 37.302C39.4268 39.3495 34.1703 40.0955 28.8843 38.8305C34.1703 41.082 41.4748 39.814 41.4998 37.302Z" fill="#1565C0"/>
<path d="M57.24 34.12C56.4 34.12 55.74 33.884 55.26 33.412C54.78 32.94 54.54 32.296 54.54 31.48H55.62C55.62 32.016 55.76 32.432 56.04 32.728C56.328 33.016 56.728 33.16 57.24 33.16C57.752 33.16 58.148 33.016 58.428 32.728C58.716 32.432 58.86 32.016 58.86 31.48V26.224H56.76V25.24H59.94V31.48C59.94 32.296 59.696 32.94 59.208 33.412C58.728 33.884 58.072 34.12 57.24 34.12ZM64.2193 34.12C63.5233 34.12 62.9753 33.944 62.5753 33.592C62.1753 33.232 61.9753 32.748 61.9753 32.14C61.9753 31.524 62.1753 31.04 62.5753 30.688C62.9753 30.336 63.5153 30.16 64.1953 30.16H66.2353V29.5C66.2353 29.092 66.1113 28.78 65.8633 28.564C65.6233 28.34 65.2793 28.228 64.8313 28.228C64.4393 28.228 64.1113 28.312 63.8473 28.48C63.5833 28.64 63.4313 28.86 63.3913 29.14H62.3113C62.3833 28.572 62.6513 28.12 63.1153 27.784C63.5793 27.448 64.1593 27.28 64.8553 27.28C65.6153 27.28 66.2153 27.476 66.6553 27.868C67.0953 28.26 67.3153 28.792 67.3153 29.464V34H66.2593V32.74H66.0793L66.2593 32.56C66.2593 33.04 66.0713 33.42 65.6953 33.7C65.3273 33.98 64.8353 34.12 64.2193 34.12ZM64.4833 33.268C64.9953 33.268 65.4153 33.14 65.7433 32.884C66.0713 32.628 66.2353 32.3 66.2353 31.9V30.964H64.2193C63.8593 30.964 63.5753 31.064 63.3673 31.264C63.1593 31.464 63.0553 31.736 63.0553 32.08C63.0553 32.448 63.1793 32.74 63.4273 32.956C63.6833 33.164 64.0353 33.268 64.4833 33.268ZM71.2586 34L69.0506 27.4H70.1546L71.6186 31.84C71.7066 32.104 71.7866 32.36 71.8586 32.608C71.9306 32.848 71.9826 33.036 72.0146 33.172C72.0546 33.036 72.1106 32.848 72.1826 32.608C72.2546 32.36 72.3306 32.104 72.4106 31.84L73.8386 27.4H74.9306L72.7226 34H71.2586ZM78.6099 34.12C77.9139 34.12 77.3659 33.944 76.9659 33.592C76.5659 33.232 76.3659 32.748 76.3659 32.14C76.3659 31.524 76.5659 31.04 76.9659 30.688C77.3659 30.336 77.9059 30.16 78.5859 30.16H80.6259V29.5C80.6259 29.092 80.5019 28.78 80.2539 28.564C80.0139 28.34 79.6699 28.228 79.2219 28.228C78.8299 28.228 78.5019 28.312 78.2379 28.48C77.9739 28.64 77.8219 28.86 77.7819 29.14H76.7019C76.7739 28.572 77.0419 28.12 77.5059 27.784C77.9699 27.448 78.5499 27.28 79.2459 27.28C80.0059 27.28 80.6059 27.476 81.0459 27.868C81.4859 28.26 81.7059 28.792 81.7059 29.464V34H80.6499V32.74H80.4699L80.6499 32.56C80.6499 33.04 80.4619 33.42 80.0859 33.7C79.7179 33.98 79.2259 34.12 78.6099 34.12ZM78.8739 33.268C79.3859 33.268 79.8059 33.14 80.1339 32.884C80.4619 32.628 80.6259 32.3 80.6259 31.9V30.964H78.6099C78.2499 30.964 77.9659 31.064 77.7579 31.264C77.5499 31.464 77.4459 31.736 77.4459 32.08C77.4459 32.448 77.5699 32.74 77.8179 32.956C78.0739 33.164 78.4259 33.268 78.8739 33.268Z" fill="#4F4D4D"/>
<defs>
<filter id="filter0_d_116_209" x="0" y="0" width="117" height="68" filterUnits="userSpaceOnUse" color-interpolation-filters="sRGB">
<feFlood flood-opacity="0" result="BackgroundImageFix"/>
<feColorMatrix in="SourceAlpha" type="matrix" values="0 0 0 0 0 0 0 0 0 0 0 0 0 0 0 0 0 0 127 0" result="hardAlpha"/>
<feOffset dx="4" dy="4"/>
<feGaussianBlur stdDeviation="9"/>
<feComposite in2="hardAlpha" operator="out"/>
<feColorMatrix type="matrix" values="0 0 0 0 0 0 0 0 0 0 0 0 0 0 0 0 0 0 0.1 0"/>
<feBlend mode="normal" in2="BackgroundImageFix" result="effect1_dropShadow_116_209"/>
<feBlend mode="normal" in="SourceGraphic" in2="effect1_dropShadow_116_209" result="shape"/>
</filter>
</defs>
</svg>
