<svg width="208" height="84" viewBox="0 0 208 84" fill="none" xmlns="http://www.w3.org/2000/svg">
<g filter="url(#filter0_d_115_80)">
<rect x="14" y="14" width="172" height="48" rx="8" fill="white"/>
</g>
<path d="M72.86 45.18C71.6 45.18 70.61 44.826 69.89 44.118C69.17 43.41 68.81 42.444 68.81 41.22H70.43C70.43 42.024 70.64 42.648 71.06 43.092C71.492 43.524 72.092 43.74 72.86 43.74C73.628 43.74 74.222 43.524 74.642 43.092C75.074 42.648 75.29 42.024 75.29 41.22V33.336H72.14V31.86H76.91V41.22C76.91 42.444 76.544 43.41 75.812 44.118C75.092 44.826 74.108 45.18 72.86 45.18ZM83.329 45.18C82.285 45.18 81.463 44.916 80.863 44.388C80.263 43.848 79.963 43.122 79.963 42.21C79.963 41.286 80.263 40.56 80.863 40.032C81.463 39.504 82.273 39.24 83.293 39.24H86.353V38.25C86.353 37.638 86.167 37.17 85.795 36.846C85.435 36.51 84.919 36.342 84.247 36.342C83.659 36.342 83.167 36.468 82.771 36.72C82.375 36.96 82.147 37.29 82.087 37.71H80.467C80.575 36.858 80.977 36.18 81.673 35.676C82.369 35.172 83.239 34.92 84.283 34.92C85.423 34.92 86.323 35.214 86.983 35.802C87.643 36.39 87.973 37.188 87.973 38.196V45H86.389V43.11H86.119L86.389 42.84C86.389 43.56 86.107 44.13 85.543 44.55C84.991 44.97 84.253 45.18 83.329 45.18ZM83.725 43.902C84.493 43.902 85.123 43.71 85.615 43.326C86.107 42.942 86.353 42.45 86.353 41.85V40.446H83.329C82.789 40.446 82.363 40.596 82.051 40.896C81.739 41.196 81.583 41.604 81.583 42.12C81.583 42.672 81.769 43.11 82.141 43.434C82.525 43.746 83.053 43.902 83.725 43.902ZM93.8879 45L90.5759 35.1H92.2319L94.4279 41.76C94.5599 42.156 94.6799 42.54 94.7879 42.912C94.8959 43.272 94.9739 43.554 95.0219 43.758C95.0819 43.554 95.1659 43.272 95.2739 42.912C95.3819 42.54 95.4959 42.156 95.6159 41.76L97.7579 35.1H99.3959L96.0839 45H93.8879ZM104.915 45.18C103.871 45.18 103.049 44.916 102.449 44.388C101.849 43.848 101.549 43.122 101.549 42.21C101.549 41.286 101.849 40.56 102.449 40.032C103.049 39.504 103.859 39.24 104.879 39.24H107.939V38.25C107.939 37.638 107.753 37.17 107.381 36.846C107.021 36.51 106.505 36.342 105.833 36.342C105.245 36.342 104.753 36.468 104.357 36.72C103.961 36.96 103.733 37.29 103.673 37.71H102.053C102.161 36.858 102.563 36.18 103.259 35.676C103.955 35.172 104.825 34.92 105.869 34.92C107.009 34.92 107.909 35.214 108.569 35.802C109.229 36.39 109.559 37.188 109.559 38.196V45H107.975V43.11H107.705L107.975 42.84C107.975 43.56 107.693 44.13 107.129 44.55C106.577 44.97 105.839 45.18 104.915 45.18ZM105.311 43.902C106.079 43.902 106.709 43.71 107.201 43.326C107.693 42.942 107.939 42.45 107.939 41.85V40.446H104.915C104.375 40.446 103.949 40.596 103.637 40.896C103.325 41.196 103.169 41.604 103.169 42.12C103.169 42.672 103.355 43.11 103.727 43.434C104.111 43.746 104.639 43.902 105.311 43.902ZM116.644 45.18C115.78 45.18 115.036 45.036 114.412 44.748C113.8 44.46 113.326 44.046 112.99 43.506C112.654 42.966 112.48 42.324 112.468 41.58H114.088C114.088 42.24 114.31 42.762 114.754 43.146C115.21 43.53 115.84 43.722 116.644 43.722C117.4 43.722 117.988 43.536 118.408 43.164C118.84 42.792 119.056 42.276 119.056 41.616C119.056 41.088 118.912 40.626 118.624 40.23C118.348 39.834 117.946 39.558 117.418 39.402L115.636 38.844C114.736 38.568 114.04 38.106 113.548 37.458C113.068 36.81 112.828 36.048 112.828 35.172C112.828 34.464 112.984 33.852 113.296 33.336C113.62 32.808 114.07 32.4 114.646 32.112C115.222 31.812 115.9 31.662 116.68 31.662C117.832 31.662 118.756 31.986 119.452 32.634C120.148 33.27 120.502 34.122 120.514 35.19H118.894C118.894 34.542 118.696 34.038 118.3 33.678C117.916 33.306 117.37 33.12 116.662 33.12C115.966 33.12 115.42 33.288 115.024 33.624C114.64 33.96 114.448 34.428 114.448 35.028C114.448 35.568 114.592 36.036 114.88 36.432C115.168 36.828 115.582 37.11 116.122 37.278L117.922 37.854C118.798 38.13 119.476 38.598 119.956 39.258C120.436 39.918 120.676 40.692 120.676 41.58C120.676 42.3 120.508 42.93 120.172 43.47C119.836 44.01 119.362 44.43 118.75 44.73C118.15 45.03 117.448 45.18 116.644 45.18ZM127.437 45.18C126.645 45.18 125.949 45.03 125.349 44.73C124.761 44.43 124.305 43.998 123.981 43.434C123.657 42.858 123.495 42.18 123.495 41.4V38.7C123.495 37.908 123.657 37.23 123.981 36.666C124.305 36.102 124.761 35.67 125.349 35.37C125.949 35.07 126.645 34.92 127.437 34.92C128.577 34.92 129.495 35.226 130.191 35.838C130.887 36.45 131.253 37.284 131.289 38.34H129.669C129.633 37.704 129.417 37.218 129.021 36.882C128.637 36.534 128.109 36.36 127.437 36.36C126.729 36.36 126.165 36.564 125.745 36.972C125.325 37.368 125.115 37.938 125.115 38.682V41.4C125.115 42.144 125.325 42.72 125.745 43.128C126.165 43.536 126.729 43.74 127.437 43.74C128.109 43.74 128.637 43.566 129.021 43.218C129.417 42.87 129.633 42.384 129.669 41.76H131.289C131.253 42.816 130.887 43.65 130.191 44.262C129.495 44.874 128.577 45.18 127.437 45.18ZM134.756 45V35.1H136.34V36.99H136.718L136.196 38.16C136.196 37.092 136.424 36.288 136.88 35.748C137.348 35.196 138.038 34.92 138.95 34.92C139.994 34.92 140.822 35.25 141.434 35.91C142.058 36.558 142.37 37.44 142.37 38.556V39.15H140.75V38.7C140.75 37.92 140.558 37.326 140.174 36.918C139.802 36.498 139.268 36.288 138.572 36.288C137.888 36.288 137.348 36.498 136.952 36.918C136.568 37.338 136.376 37.932 136.376 38.7V45H134.756ZM145.081 45V43.524H148.591V36.576H145.531V35.1H150.211V43.524H153.541V45H145.081ZM149.221 33.318C148.825 33.318 148.513 33.216 148.285 33.012C148.057 32.808 147.943 32.532 147.943 32.184C147.943 31.824 148.057 31.542 148.285 31.338C148.513 31.122 148.825 31.014 149.221 31.014C149.617 31.014 149.929 31.122 150.157 31.338C150.385 31.542 150.499 31.824 150.499 32.184C150.499 32.532 150.385 32.808 150.157 33.012C149.929 33.216 149.617 33.318 149.221 33.318ZM156 48.24V35.1H157.62V36.99H157.944L157.62 37.368C157.62 36.612 157.866 36.018 158.358 35.586C158.862 35.142 159.522 34.92 160.338 34.92C161.334 34.92 162.126 35.25 162.714 35.91C163.314 36.558 163.614 37.452 163.614 38.592V41.49C163.614 42.246 163.476 42.9 163.2 43.452C162.936 44.004 162.558 44.43 162.066 44.73C161.586 45.03 161.01 45.18 160.338 45.18C159.534 45.18 158.88 44.958 158.376 44.514C157.872 44.07 157.62 43.476 157.62 42.732L157.944 43.11H157.584L157.62 45.36V48.24H156ZM159.798 43.776C160.482 43.776 161.016 43.572 161.4 43.164C161.796 42.756 161.994 42.168 161.994 41.4V38.7C161.994 37.932 161.796 37.344 161.4 36.936C161.016 36.528 160.482 36.324 159.798 36.324C159.138 36.324 158.61 36.534 158.214 36.954C157.818 37.374 157.62 37.956 157.62 38.7V41.4C157.62 42.144 157.818 42.726 158.214 43.146C158.61 43.566 159.138 43.776 159.798 43.776ZM171.617 45C170.765 45 170.099 44.772 169.619 44.316C169.151 43.86 168.917 43.218 168.917 42.39V36.576H166.127V35.1H168.917V32.31H170.537V35.1H174.497V36.576H170.537V42.39C170.537 43.146 170.897 43.524 171.617 43.524H174.317V45H171.617Z" fill="#4F4D4D"/>
<path d="M30 50V26H54V50H30Z" fill="#FFD600"/>
<path d="M45.6922 43.9647C46.1535 44.7141 46.6548 45.4321 47.7168 45.4321C48.6088 45.4321 49.0768 44.9887 49.0768 44.3754C49.0768 43.6414 48.5928 43.3807 47.6115 42.9534L47.0735 42.7241C45.5208 42.0654 44.4882 41.2401 44.4882 39.4967C44.4882 37.8901 45.7182 36.6674 47.6402 36.6674C49.0088 36.6674 49.9922 37.1414 50.7015 38.3827L49.0255 39.4541C48.6568 38.7954 48.2582 38.5361 47.6402 38.5361C47.0095 38.5361 46.6102 38.9341 46.6102 39.4541C46.6102 40.0967 47.0102 40.3567 47.9335 40.7547L48.4715 40.9841C50.3015 41.7634 51.3335 42.5594 51.3335 44.3487C51.3335 46.2767 49.8108 47.3334 47.7668 47.3334C45.7675 47.3334 44.6322 46.3301 44.0002 45.0881L45.6922 43.9647ZM37.9682 44.0194C38.3055 44.6234 38.8182 45.0881 39.5555 45.0881C40.2608 45.0881 40.6668 44.8094 40.6668 43.7261V36.6667H42.8888V44.0674C42.8888 46.3121 41.5868 47.3334 39.6855 47.3334C37.9675 47.3334 36.7275 46.1694 36.2222 45.0881L37.9682 44.0194Z" fill="#000001"/>
<defs>
<filter id="filter0_d_115_80" x="0" y="0" width="208" height="84" filterUnits="userSpaceOnUse" color-interpolation-filters="sRGB">
<feFlood flood-opacity="0" result="BackgroundImageFix"/>
<feColorMatrix in="SourceAlpha" type="matrix" values="0 0 0 0 0 0 0 0 0 0 0 0 0 0 0 0 0 0 127 0" result="hardAlpha"/>
<feOffset dx="4" dy="4"/>
<feGaussianBlur stdDeviation="9"/>
<feComposite in2="hardAlpha" operator="out"/>
<feColorMatrix type="matrix" values="0 0 0 0 0 0 0 0 0 0 0 0 0 0 0 0 0 0 0.1 0"/>
<feBlend mode="normal" in2="BackgroundImageFix" result="effect1_dropShadow_115_80"/>
<feBlend mode="normal" in="SourceGraphic" in2="effect1_dropShadow_115_80" result="shape"/>
</filter>
</defs>
</svg>
