<svg width="148" height="84" viewBox="0 0 148 84" fill="none" xmlns="http://www.w3.org/2000/svg">
<g filter="url(#filter0_d_115_14)">
<rect x="14" y="14" width="112" height="48" rx="8" fill="white"/>
</g>
<path d="M41.7669 38.5987C41.1015 37.526 40.6189 36.6367 39.9502 34.962C38.8195 32.1333 46.8269 29.5773 43.5802 24.666C44.9875 28.0587 38.5289 30.156 37.9289 32.9813C37.3802 35.58 41.7635 38.5987 41.7669 38.5987Z" fill="#F44336"/>
<path d="M41.9188 33.5133C41.7908 35.1906 43.4048 36.0846 43.4515 37.31C43.4888 38.3073 42.4868 39.1386 42.4868 39.1386C42.4868 39.1386 44.3055 38.7813 44.8728 37.26C45.5028 35.5706 43.6502 34.414 43.8408 33.0613C44.0188 31.7693 47.8615 29.366 47.8615 29.366C47.8615 29.366 42.2075 29.7406 41.9188 33.5133Z" fill="#F44336"/>
<path d="M47.3892 38.7032C48.5586 38.4406 49.5446 39.1852 49.5446 40.0432C49.5446 41.9772 46.8639 43.8052 46.8639 43.8052C46.8639 43.8052 51.0139 43.3106 51.0139 40.1352C51.0139 38.0352 48.9759 37.5106 47.3892 38.7032ZM45.4192 40.2632C45.4192 40.2632 46.7132 39.3412 47.0579 38.9952C43.8826 39.6692 36.6326 39.7599 36.6326 39.1746C36.6326 38.6352 38.9706 38.0826 38.9706 38.0826C38.9706 38.0826 33.7886 38.0079 33.7886 39.5366C33.7886 41.1299 40.5719 41.2439 45.4192 40.2632Z" fill="#1565C0"/>
<path d="M44.6231 41.714C41.6171 42.7133 36.0805 42.394 37.7205 41.052C36.9218 41.052 35.7378 41.694 35.7378 42.3113C35.7378 43.5493 41.7258 44.5053 46.1578 42.6927L44.6231 41.714Z" fill="#1565C0"/>
<path d="M38.4573 43.8259C37.3666 43.8259 36.6606 44.5286 36.6606 45.0406C36.6606 46.6346 43.1673 46.7953 45.7453 45.1773L44.1066 44.0893C42.1806 44.9359 37.3426 45.0526 38.4573 43.8259Z" fill="#1565C0"/>
<path d="M50.1873 46.4213C50.1873 45.7973 49.484 45.5033 49.232 45.3626C50.7173 48.9446 34.354 48.6666 34.354 46.5519C34.354 46.0713 35.5587 45.6006 36.672 45.8233L35.7253 45.2639C33.5067 44.9159 32 45.8913 32 46.6779C32 50.3466 50.1873 50.1699 50.1873 46.4213Z" fill="#1565C0"/>
<path d="M51.9999 47.7358C49.2359 50.4658 42.2272 51.4605 35.1792 49.7738C42.2272 52.7758 51.9665 51.0852 51.9999 47.7358Z" fill="#1565C0"/>
<path d="M72.86 45.18C71.6 45.18 70.61 44.826 69.89 44.118C69.17 43.41 68.81 42.444 68.81 41.22H70.43C70.43 42.024 70.64 42.648 71.06 43.092C71.492 43.524 72.092 43.74 72.86 43.74C73.628 43.74 74.222 43.524 74.642 43.092C75.074 42.648 75.29 42.024 75.29 41.22V33.336H72.14V31.86H76.91V41.22C76.91 42.444 76.544 43.41 75.812 44.118C75.092 44.826 74.108 45.18 72.86 45.18ZM83.329 45.18C82.285 45.18 81.463 44.916 80.863 44.388C80.263 43.848 79.963 43.122 79.963 42.21C79.963 41.286 80.263 40.56 80.863 40.032C81.463 39.504 82.273 39.24 83.293 39.24H86.353V38.25C86.353 37.638 86.167 37.17 85.795 36.846C85.435 36.51 84.919 36.342 84.247 36.342C83.659 36.342 83.167 36.468 82.771 36.72C82.375 36.96 82.147 37.29 82.087 37.71H80.467C80.575 36.858 80.977 36.18 81.673 35.676C82.369 35.172 83.239 34.92 84.283 34.92C85.423 34.92 86.323 35.214 86.983 35.802C87.643 36.39 87.973 37.188 87.973 38.196V45H86.389V43.11H86.119L86.389 42.84C86.389 43.56 86.107 44.13 85.543 44.55C84.991 44.97 84.253 45.18 83.329 45.18ZM83.725 43.902C84.493 43.902 85.123 43.71 85.615 43.326C86.107 42.942 86.353 42.45 86.353 41.85V40.446H83.329C82.789 40.446 82.363 40.596 82.051 40.896C81.739 41.196 81.583 41.604 81.583 42.12C81.583 42.672 81.769 43.11 82.141 43.434C82.525 43.746 83.053 43.902 83.725 43.902ZM93.8879 45L90.5759 35.1H92.2319L94.4279 41.76C94.5599 42.156 94.6799 42.54 94.7879 42.912C94.8959 43.272 94.9739 43.554 95.0219 43.758C95.0819 43.554 95.1659 43.272 95.2739 42.912C95.3819 42.54 95.4959 42.156 95.6159 41.76L97.7579 35.1H99.3959L96.0839 45H93.8879ZM104.915 45.18C103.871 45.18 103.049 44.916 102.449 44.388C101.849 43.848 101.549 43.122 101.549 42.21C101.549 41.286 101.849 40.56 102.449 40.032C103.049 39.504 103.859 39.24 104.879 39.24H107.939V38.25C107.939 37.638 107.753 37.17 107.381 36.846C107.021 36.51 106.505 36.342 105.833 36.342C105.245 36.342 104.753 36.468 104.357 36.72C103.961 36.96 103.733 37.29 103.673 37.71H102.053C102.161 36.858 102.563 36.18 103.259 35.676C103.955 35.172 104.825 34.92 105.869 34.92C107.009 34.92 107.909 35.214 108.569 35.802C109.229 36.39 109.559 37.188 109.559 38.196V45H107.975V43.11H107.705L107.975 42.84C107.975 43.56 107.693 44.13 107.129 44.55C106.577 44.97 105.839 45.18 104.915 45.18ZM105.311 43.902C106.079 43.902 106.709 43.71 107.201 43.326C107.693 42.942 107.939 42.45 107.939 41.85V40.446H104.915C104.375 40.446 103.949 40.596 103.637 40.896C103.325 41.196 103.169 41.604 103.169 42.12C103.169 42.672 103.355 43.11 103.727 43.434C104.111 43.746 104.639 43.902 105.311 43.902Z" fill="#4F4D4D"/>
<defs>
<filter id="filter0_d_115_14" x="0" y="0" width="148" height="84" filterUnits="userSpaceOnUse" color-interpolation-filters="sRGB">
<feFlood flood-opacity="0" result="BackgroundImageFix"/>
<feColorMatrix in="SourceAlpha" type="matrix" values="0 0 0 0 0 0 0 0 0 0 0 0 0 0 0 0 0 0 127 0" result="hardAlpha"/>
<feOffset dx="4" dy="4"/>
<feGaussianBlur stdDeviation="9"/>
<feComposite in2="hardAlpha" operator="out"/>
<feColorMatrix type="matrix" values="0 0 0 0 0 0 0 0 0 0 0 0 0 0 0 0 0 0 0.1 0"/>
<feBlend mode="normal" in2="BackgroundImageFix" result="effect1_dropShadow_115_14"/>
<feBlend mode="normal" in="SourceGraphic" in2="effect1_dropShadow_115_14" result="shape"/>
</filter>
</defs>
</svg>
