<svg width="108" height="32" viewBox="0 0 108 32" fill="none" xmlns="http://www.w3.org/2000/svg">
<style>
        rect {
             fill: #00000; <!-- set icon color for light mode -->
        }
        path {
      fill: #00000; <!-- set icon color for light mode -->
    }

      svg {
        background-color: white;
        color-scheme:light dark;
      }
      @media (prefers-color-scheme:dark) {
        svg {
          background-color: black;
        }
        rect {
             fill: #0d1117; <!-- set icon color for light mode -->
        }
        #gh-dark-mode-only{
      fill: #ffffff; <!-- set icon color for light mode -->
    }

      }
    </style>
<rect x="0.5" y="0.5" width="107" height="31" rx="7.5" fill="white" stroke="#BCBEC0"/>
<path d="M20 21C13.55 21 8.5 18.8 8.5 16C8.5 13.2 13.55 11 20 11C26.45 11 31.5 13.2 31.5 16C31.5 18.8 26.45 21 20 21ZM20 12C13.7 12 9.5 14.05 9.5 16C9.5 17.95 13.7 20 20 20C26.3 20 30.5 17.95 30.5 16C30.5 14.05 26.3 12 20 12Z" fill="#80DEEA"/>
<path d="M15.5498 26.3C15.0498 26.3 14.6498 26.2 14.2498 25.95C11.7998 24.55 12.4498 19.1 15.6498 13.5C17.1498 10.9 18.9998 8.69998 20.7998 7.29998C22.7498 5.79998 24.4998 5.34998 25.6998 6.04998C26.9498 6.74998 27.3998 8.49998 27.0998 10.95C26.7998 13.25 25.7998 15.95 24.2998 18.55C22.7998 21.15 20.9498 23.35 19.1498 24.75C17.8498 25.75 16.5998 26.3 15.5498 26.3ZM24.4498 6.69998C23.6498 6.69998 22.5998 7.14998 21.4498 8.04998C19.7498 9.39998 17.9998 11.5 16.5498 14C13.3998 19.45 13.0998 24.15 14.7498 25.1C15.5998 25.6 16.9998 25.15 18.5498 23.95C20.2498 22.6 21.9998 20.5 23.4498 18C24.8998 15.5 25.8498 12.95 26.1498 10.8C26.3998 8.79998 26.0998 7.39998 25.2498 6.89998C24.9998 6.79998 24.7498 6.69998 24.4498 6.69998Z" fill="#80DEEA"/>
<path d="M24.4998 26.3C21.9998 26.3 18.3998 23.25 15.6998 18.5C12.4498 12.9 11.7998 7.45004 14.2498 6.05004C16.6998 4.65004 21.0998 7.90004 24.3498 13.5C25.8498 16.1 26.8498 18.8 27.1498 21.1C27.4998 23.55 26.9998 25.25 25.7498 26C25.3498 26.2 24.9498 26.3 24.4998 26.3ZM14.7498 6.90004C13.0998 7.85004 13.3998 12.55 16.5498 18C19.6998 23.45 23.5998 26.05 25.2498 25.1C26.0998 24.6 26.3998 23.2 26.1498 21.2C25.8498 19.05 24.8998 16.5 23.4498 14C20.2998 8.55004 16.3998 5.95004 14.7498 6.90004Z" fill="#80DEEA"/>
<path d="M20 18C21.1046 18 22 17.1046 22 16C22 14.8954 21.1046 14 20 14C18.8954 14 18 14.8954 18 16C18 17.1046 18.8954 18 20 18Z" fill="#80DEEA"/>
<path id="gh-dark-mode-only" d="M41.104 20V11.24H43.816C44.336 11.24 44.792 11.348 45.184 11.564C45.576 11.772 45.88 12.064 46.096 12.44C46.312 12.816 46.42 13.256 46.42 13.76C46.42 14.352 46.264 14.86 45.952 15.284C45.648 15.708 45.232 16 44.704 16.16L46.54 20H45.268L43.588 16.28H42.184V20H41.104ZM42.184 15.308H43.816C44.264 15.308 44.624 15.168 44.896 14.888C45.168 14.6 45.304 14.224 45.304 13.76C45.304 13.288 45.168 12.912 44.896 12.632C44.624 12.352 44.264 12.212 43.816 12.212H42.184V15.308ZM50.7953 20.12C50.2753 20.12 49.8193 20.016 49.4273 19.808C49.0433 19.6 48.7433 19.308 48.5273 18.932C48.3193 18.548 48.2153 18.104 48.2153 17.6V15.8C48.2153 15.288 48.3193 14.844 48.5273 14.468C48.7433 14.092 49.0433 13.8 49.4273 13.592C49.8193 13.384 50.2753 13.28 50.7953 13.28C51.3153 13.28 51.7673 13.384 52.1513 13.592C52.5433 13.8 52.8433 14.092 53.0513 14.468C53.2673 14.844 53.3753 15.288 53.3753 15.8V16.964H49.2713V17.6C49.2713 18.12 49.4033 18.52 49.6673 18.8C49.9313 19.072 50.3073 19.208 50.7953 19.208C51.2113 19.208 51.5473 19.136 51.8033 18.992C52.0593 18.84 52.2153 18.616 52.2713 18.32H53.3513C53.2793 18.872 53.0073 19.312 52.5353 19.64C52.0713 19.96 51.4913 20.12 50.7953 20.12ZM52.3193 16.244V15.8C52.3193 15.28 52.1873 14.88 51.9233 14.6C51.6673 14.32 51.2913 14.18 50.7953 14.18C50.3073 14.18 49.9313 14.32 49.6673 14.6C49.4033 14.88 49.2713 15.28 49.2713 15.8V16.148H52.4033L52.3193 16.244ZM57.4146 20.12C56.7186 20.12 56.1706 19.944 55.7706 19.592C55.3706 19.232 55.1706 18.748 55.1706 18.14C55.1706 17.524 55.3706 17.04 55.7706 16.688C56.1706 16.336 56.7106 16.16 57.3906 16.16H59.4306V15.5C59.4306 15.092 59.3066 14.78 59.0586 14.564C58.8186 14.34 58.4746 14.228 58.0266 14.228C57.6346 14.228 57.3066 14.312 57.0426 14.48C56.7786 14.64 56.6266 14.86 56.5866 15.14H55.5066C55.5786 14.572 55.8466 14.12 56.3106 13.784C56.7746 13.448 57.3546 13.28 58.0506 13.28C58.8106 13.28 59.4106 13.476 59.8506 13.868C60.2906 14.26 60.5106 14.792 60.5106 15.464V20H59.4546V18.74H59.2746L59.4546 18.56C59.4546 19.04 59.2666 19.42 58.8906 19.7C58.5226 19.98 58.0306 20.12 57.4146 20.12ZM57.6786 19.268C58.1906 19.268 58.6106 19.14 58.9386 18.884C59.2666 18.628 59.4306 18.3 59.4306 17.9V16.964H57.4146C57.0546 16.964 56.7706 17.064 56.5626 17.264C56.3546 17.464 56.2506 17.736 56.2506 18.08C56.2506 18.448 56.3746 18.74 56.6226 18.956C56.8786 19.164 57.2306 19.268 57.6786 19.268ZM65.2339 20.12C64.7059 20.12 64.2419 20.02 63.8419 19.82C63.4499 19.62 63.1459 19.332 62.9299 18.956C62.7139 18.572 62.6059 18.12 62.6059 17.6V15.8C62.6059 15.272 62.7139 14.82 62.9299 14.444C63.1459 14.068 63.4499 13.78 63.8419 13.58C64.2419 13.38 64.7059 13.28 65.2339 13.28C65.9939 13.28 66.6059 13.484 67.0699 13.892C67.5339 14.3 67.7779 14.856 67.8019 15.56H66.7219C66.6979 15.136 66.5539 14.812 66.2899 14.588C66.0339 14.356 65.6819 14.24 65.2339 14.24C64.7619 14.24 64.3859 14.376 64.1059 14.648C63.8259 14.912 63.6859 15.292 63.6859 15.788V17.6C63.6859 18.096 63.8259 18.48 64.1059 18.752C64.3859 19.024 64.7619 19.16 65.2339 19.16C65.6819 19.16 66.0339 19.044 66.2899 18.812C66.5539 18.58 66.6979 18.256 66.7219 17.84H67.8019C67.7779 18.544 67.5339 19.1 67.0699 19.508C66.6059 19.916 65.9939 20.12 65.2339 20.12ZM73.1013 20C72.5333 20 72.0893 19.848 71.7693 19.544C71.4573 19.24 71.3013 18.812 71.3013 18.26V14.384H69.4413V13.4H71.3013V11.54H72.3813V13.4H75.0213V14.384H72.3813V18.26C72.3813 18.764 72.6213 19.016 73.1013 19.016H74.9013V20H73.1013ZM86.4119 20.12C85.5719 20.12 84.9119 19.884 84.4319 19.412C83.9519 18.94 83.7119 18.296 83.7119 17.48H84.7919C84.7919 18.016 84.9319 18.432 85.2119 18.728C85.4999 19.016 85.8999 19.16 86.4119 19.16C86.9239 19.16 87.3199 19.016 87.5999 18.728C87.8879 18.432 88.0319 18.016 88.0319 17.48V12.224H85.9319V11.24H89.1119V17.48C89.1119 18.296 88.8679 18.94 88.3799 19.412C87.8999 19.884 87.2439 20.12 86.4119 20.12ZM94.0152 20.12C93.4392 20.12 92.9432 20.024 92.5272 19.832C92.1192 19.64 91.8032 19.364 91.5792 19.004C91.3552 18.644 91.2392 18.216 91.2312 17.72H92.3112C92.3112 18.16 92.4592 18.508 92.7552 18.764C93.0592 19.02 93.4792 19.148 94.0152 19.148C94.5192 19.148 94.9112 19.024 95.1912 18.776C95.4792 18.528 95.6232 18.184 95.6232 17.744C95.6232 17.392 95.5272 17.084 95.3352 16.82C95.1512 16.556 94.8832 16.372 94.5312 16.268L93.3432 15.896C92.7432 15.712 92.2792 15.404 91.9512 14.972C91.6312 14.54 91.4712 14.032 91.4712 13.448C91.4712 12.976 91.5752 12.568 91.7832 12.224C91.9992 11.872 92.2992 11.6 92.6832 11.408C93.0672 11.208 93.5192 11.108 94.0392 11.108C94.8072 11.108 95.4232 11.324 95.8872 11.756C96.3512 12.18 96.5872 12.748 96.5952 13.46H95.5152C95.5152 13.028 95.3832 12.692 95.1192 12.452C94.8632 12.204 94.4992 12.08 94.0272 12.08C93.5632 12.08 93.1992 12.192 92.9352 12.416C92.6792 12.64 92.5512 12.952 92.5512 13.352C92.5512 13.712 92.6472 14.024 92.8392 14.288C93.0312 14.552 93.3072 14.74 93.6672 14.852L94.8672 15.236C95.4512 15.42 95.9032 15.732 96.2232 16.172C96.5432 16.612 96.7032 17.128 96.7032 17.72C96.7032 18.2 96.5912 18.62 96.3672 18.98C96.1432 19.34 95.8272 19.62 95.4192 19.82C95.0192 20.02 94.5512 20.12 94.0152 20.12Z" fill="#4F4D4D"/>
</svg>
