<svg width="144" height="68" viewBox="0 0 144 68" fill="none" xmlns="http://www.w3.org/2000/svg">
<g filter="url(#filter0_d_116_242)">
<rect x="14" y="14" width="108" height="32" rx="8" fill="white"/>
<rect x="14.5" y="14.5" width="107" height="31" rx="7.5" stroke="#BCBEC0"/>
</g>
<path d="M34 35C27.55 35 22.5 32.8 22.5 30C22.5 27.2 27.55 25 34 25C40.45 25 45.5 27.2 45.5 30C45.5 32.8 40.45 35 34 35ZM34 26C27.7 26 23.5 28.05 23.5 30C23.5 31.95 27.7 34 34 34C40.3 34 44.5 31.95 44.5 30C44.5 28.05 40.3 26 34 26Z" fill="#80DEEA"/>
<path d="M29.5498 40.3C29.0498 40.3 28.6498 40.2 28.2498 39.95C25.7998 38.55 26.4498 33.1 29.6498 27.5C31.1498 24.9 32.9998 22.7 34.7998 21.3C36.7498 19.8 38.4998 19.35 39.6998 20.05C40.9498 20.75 41.3998 22.5 41.0998 24.95C40.7998 27.25 39.7998 29.95 38.2998 32.55C36.7998 35.15 34.9498 37.35 33.1498 38.75C31.8498 39.75 30.5998 40.3 29.5498 40.3ZM38.4498 20.7C37.6498 20.7 36.5998 21.15 35.4498 22.05C33.7498 23.4 31.9998 25.5 30.5498 28C27.3998 33.45 27.0998 38.15 28.7498 39.1C29.5998 39.6 30.9998 39.15 32.5498 37.95C34.2498 36.6 35.9998 34.5 37.4498 32C38.8998 29.5 39.8498 26.95 40.1498 24.8C40.3998 22.8 40.0998 21.4 39.2498 20.9C38.9998 20.8 38.7498 20.7 38.4498 20.7Z" fill="#80DEEA"/>
<path d="M38.4998 40.3C35.9998 40.3 32.3998 37.25 29.6998 32.5C26.4498 26.9 25.7998 21.45 28.2498 20.05C30.6998 18.65 35.0998 21.9 38.3498 27.5C39.8498 30.1 40.8498 32.8 41.1498 35.1C41.4998 37.55 40.9998 39.25 39.7498 40C39.3498 40.2 38.9498 40.3 38.4998 40.3ZM28.7498 20.9C27.0998 21.85 27.3998 26.55 30.5498 32C33.6998 37.45 37.5998 40.05 39.2498 39.1C40.0998 38.6 40.3998 37.2 40.1498 35.2C39.8498 33.05 38.8998 30.5 37.4498 28C34.2998 22.55 30.3998 19.95 28.7498 20.9Z" fill="#80DEEA"/>
<path d="M34 32C35.1046 32 36 31.1046 36 30C36 28.8954 35.1046 28 34 28C32.8954 28 32 28.8954 32 30C32 31.1046 32.8954 32 34 32Z" fill="#80DEEA"/>
<path d="M55.104 34V25.24H57.816C58.336 25.24 58.792 25.348 59.184 25.564C59.576 25.772 59.88 26.064 60.096 26.44C60.312 26.816 60.42 27.256 60.42 27.76C60.42 28.352 60.264 28.86 59.952 29.284C59.648 29.708 59.232 30 58.704 30.16L60.54 34H59.268L57.588 30.28H56.184V34H55.104ZM56.184 29.308H57.816C58.264 29.308 58.624 29.168 58.896 28.888C59.168 28.6 59.304 28.224 59.304 27.76C59.304 27.288 59.168 26.912 58.896 26.632C58.624 26.352 58.264 26.212 57.816 26.212H56.184V29.308ZM64.7953 34.12C64.2753 34.12 63.8193 34.016 63.4273 33.808C63.0433 33.6 62.7433 33.308 62.5273 32.932C62.3193 32.548 62.2153 32.104 62.2153 31.6V29.8C62.2153 29.288 62.3193 28.844 62.5273 28.468C62.7433 28.092 63.0433 27.8 63.4273 27.592C63.8193 27.384 64.2753 27.28 64.7953 27.28C65.3153 27.28 65.7673 27.384 66.1513 27.592C66.5433 27.8 66.8433 28.092 67.0513 28.468C67.2673 28.844 67.3753 29.288 67.3753 29.8V30.964H63.2713V31.6C63.2713 32.12 63.4033 32.52 63.6673 32.8C63.9313 33.072 64.3073 33.208 64.7953 33.208C65.2113 33.208 65.5473 33.136 65.8033 32.992C66.0593 32.84 66.2153 32.616 66.2713 32.32H67.3513C67.2793 32.872 67.0073 33.312 66.5353 33.64C66.0713 33.96 65.4913 34.12 64.7953 34.12ZM66.3193 30.244V29.8C66.3193 29.28 66.1873 28.88 65.9233 28.6C65.6673 28.32 65.2913 28.18 64.7953 28.18C64.3073 28.18 63.9313 28.32 63.6673 28.6C63.4033 28.88 63.2713 29.28 63.2713 29.8V30.148H66.4033L66.3193 30.244ZM71.4146 34.12C70.7186 34.12 70.1706 33.944 69.7706 33.592C69.3706 33.232 69.1706 32.748 69.1706 32.14C69.1706 31.524 69.3706 31.04 69.7706 30.688C70.1706 30.336 70.7106 30.16 71.3906 30.16H73.4306V29.5C73.4306 29.092 73.3066 28.78 73.0586 28.564C72.8186 28.34 72.4746 28.228 72.0266 28.228C71.6346 28.228 71.3066 28.312 71.0426 28.48C70.7786 28.64 70.6266 28.86 70.5866 29.14H69.5066C69.5786 28.572 69.8466 28.12 70.3106 27.784C70.7746 27.448 71.3546 27.28 72.0506 27.28C72.8106 27.28 73.4106 27.476 73.8506 27.868C74.2906 28.26 74.5106 28.792 74.5106 29.464V34H73.4546V32.74H73.2746L73.4546 32.56C73.4546 33.04 73.2666 33.42 72.8906 33.7C72.5226 33.98 72.0306 34.12 71.4146 34.12ZM71.6786 33.268C72.1906 33.268 72.6106 33.14 72.9386 32.884C73.2666 32.628 73.4306 32.3 73.4306 31.9V30.964H71.4146C71.0546 30.964 70.7706 31.064 70.5626 31.264C70.3546 31.464 70.2506 31.736 70.2506 32.08C70.2506 32.448 70.3746 32.74 70.6226 32.956C70.8786 33.164 71.2306 33.268 71.6786 33.268ZM79.2339 34.12C78.7059 34.12 78.2419 34.02 77.8419 33.82C77.4499 33.62 77.1459 33.332 76.9299 32.956C76.7139 32.572 76.6059 32.12 76.6059 31.6V29.8C76.6059 29.272 76.7139 28.82 76.9299 28.444C77.1459 28.068 77.4499 27.78 77.8419 27.58C78.2419 27.38 78.7059 27.28 79.2339 27.28C79.9939 27.28 80.6059 27.484 81.0699 27.892C81.5339 28.3 81.7779 28.856 81.8019 29.56H80.7219C80.6979 29.136 80.5539 28.812 80.2899 28.588C80.0339 28.356 79.6819 28.24 79.2339 28.24C78.7619 28.24 78.3859 28.376 78.1059 28.648C77.8259 28.912 77.6859 29.292 77.6859 29.788V31.6C77.6859 32.096 77.8259 32.48 78.1059 32.752C78.3859 33.024 78.7619 33.16 79.2339 33.16C79.6819 33.16 80.0339 33.044 80.2899 32.812C80.5539 32.58 80.6979 32.256 80.7219 31.84H81.8019C81.7779 32.544 81.5339 33.1 81.0699 33.508C80.6059 33.916 79.9939 34.12 79.2339 34.12ZM87.1013 34C86.5333 34 86.0893 33.848 85.7693 33.544C85.4573 33.24 85.3013 32.812 85.3013 32.26V28.384H83.4413V27.4H85.3013V25.54H86.3813V27.4H89.0213V28.384H86.3813V32.26C86.3813 32.764 86.6213 33.016 87.1013 33.016H88.9013V34H87.1013ZM100.412 34.12C99.5719 34.12 98.9119 33.884 98.4319 33.412C97.9519 32.94 97.7119 32.296 97.7119 31.48H98.7919C98.7919 32.016 98.9319 32.432 99.2119 32.728C99.4999 33.016 99.8999 33.16 100.412 33.16C100.924 33.16 101.32 33.016 101.6 32.728C101.888 32.432 102.032 32.016 102.032 31.48V26.224H99.9319V25.24H103.112V31.48C103.112 32.296 102.868 32.94 102.38 33.412C101.9 33.884 101.244 34.12 100.412 34.12ZM108.015 34.12C107.439 34.12 106.943 34.024 106.527 33.832C106.119 33.64 105.803 33.364 105.579 33.004C105.355 32.644 105.239 32.216 105.231 31.72H106.311C106.311 32.16 106.459 32.508 106.755 32.764C107.059 33.02 107.479 33.148 108.015 33.148C108.519 33.148 108.911 33.024 109.191 32.776C109.479 32.528 109.623 32.184 109.623 31.744C109.623 31.392 109.527 31.084 109.335 30.82C109.151 30.556 108.883 30.372 108.531 30.268L107.343 29.896C106.743 29.712 106.279 29.404 105.951 28.972C105.631 28.54 105.471 28.032 105.471 27.448C105.471 26.976 105.575 26.568 105.783 26.224C105.999 25.872 106.299 25.6 106.683 25.408C107.067 25.208 107.519 25.108 108.039 25.108C108.807 25.108 109.423 25.324 109.887 25.756C110.351 26.18 110.587 26.748 110.595 27.46H109.515C109.515 27.028 109.383 26.692 109.119 26.452C108.863 26.204 108.499 26.08 108.027 26.08C107.563 26.08 107.199 26.192 106.935 26.416C106.679 26.64 106.551 26.952 106.551 27.352C106.551 27.712 106.647 28.024 106.839 28.288C107.031 28.552 107.307 28.74 107.667 28.852L108.867 29.236C109.451 29.42 109.903 29.732 110.223 30.172C110.543 30.612 110.703 31.128 110.703 31.72C110.703 32.2 110.591 32.62 110.367 32.98C110.143 33.34 109.827 33.62 109.419 33.82C109.019 34.02 108.551 34.12 108.015 34.12Z" fill="#4F4D4D"/>
<defs>
<filter id="filter0_d_116_242" x="0" y="0" width="144" height="68" filterUnits="userSpaceOnUse" color-interpolation-filters="sRGB">
<feFlood flood-opacity="0" result="BackgroundImageFix"/>
<feColorMatrix in="SourceAlpha" type="matrix" values="0 0 0 0 0 0 0 0 0 0 0 0 0 0 0 0 0 0 127 0" result="hardAlpha"/>
<feOffset dx="4" dy="4"/>
<feGaussianBlur stdDeviation="9"/>
<feComposite in2="hardAlpha" operator="out"/>
<feColorMatrix type="matrix" values="0 0 0 0 0 0 0 0 0 0 0 0 0 0 0 0 0 0 0.1 0"/>
<feBlend mode="normal" in2="BackgroundImageFix" result="effect1_dropShadow_116_242"/>
<feBlend mode="normal" in="SourceGraphic" in2="effect1_dropShadow_116_242" result="shape"/>
</filter>
</defs>
</svg>
