<svg width="186" height="84" viewBox="0 0 186 84" fill="none" xmlns="http://www.w3.org/2000/svg">
<g filter="url(#filter0_d_115_83)">
<rect x="14" y="14" width="150" height="48" rx="8" fill="white"/>
</g>
<path d="M69.656 45V31.86H73.724C74.504 31.86 75.188 32.022 75.776 32.346C76.364 32.658 76.82 33.096 77.144 33.66C77.468 34.224 77.63 34.884 77.63 35.64C77.63 36.528 77.396 37.29 76.928 37.926C76.472 38.562 75.848 39 75.056 39.24L77.81 45H75.902L73.382 39.42H71.276V45H69.656ZM71.276 37.962H73.724C74.396 37.962 74.936 37.752 75.344 37.332C75.752 36.9 75.956 36.336 75.956 35.64C75.956 34.932 75.752 34.368 75.344 33.948C74.936 33.528 74.396 33.318 73.724 33.318H71.276V37.962ZM84.193 45.18C83.413 45.18 82.729 45.024 82.141 44.712C81.565 44.4 81.115 43.962 80.791 43.398C80.479 42.822 80.323 42.156 80.323 41.4V38.7C80.323 37.932 80.479 37.266 80.791 36.702C81.115 36.138 81.565 35.7 82.141 35.388C82.729 35.076 83.413 34.92 84.193 34.92C84.973 34.92 85.651 35.076 86.227 35.388C86.815 35.7 87.265 36.138 87.577 36.702C87.901 37.266 88.063 37.932 88.063 38.7V40.446H81.907V41.4C81.907 42.18 82.105 42.78 82.501 43.2C82.897 43.608 83.461 43.812 84.193 43.812C84.817 43.812 85.321 43.704 85.705 43.488C86.089 43.26 86.323 42.924 86.407 42.48H88.027C87.919 43.308 87.511 43.968 86.803 44.46C86.107 44.94 85.237 45.18 84.193 45.18ZM86.479 39.366V38.7C86.479 37.92 86.281 37.32 85.885 36.9C85.501 36.48 84.937 36.27 84.193 36.27C83.461 36.27 82.897 36.48 82.501 36.9C82.105 37.32 81.907 37.92 81.907 38.7V39.222H86.605L86.479 39.366ZM94.1219 45.18C93.0779 45.18 92.2559 44.916 91.6559 44.388C91.0559 43.848 90.7559 43.122 90.7559 42.21C90.7559 41.286 91.0559 40.56 91.6559 40.032C92.2559 39.504 93.0659 39.24 94.0859 39.24H97.1459V38.25C97.1459 37.638 96.9599 37.17 96.5879 36.846C96.2279 36.51 95.7119 36.342 95.0399 36.342C94.4519 36.342 93.9599 36.468 93.5639 36.72C93.1679 36.96 92.9399 37.29 92.8799 37.71H91.2599C91.3679 36.858 91.7699 36.18 92.4659 35.676C93.1619 35.172 94.0319 34.92 95.0759 34.92C96.2159 34.92 97.1159 35.214 97.7759 35.802C98.4359 36.39 98.7659 37.188 98.7659 38.196V45H97.1819V43.11H96.9119L97.1819 42.84C97.1819 43.56 96.8999 44.13 96.3359 44.55C95.7839 44.97 95.0459 45.18 94.1219 45.18ZM94.5179 43.902C95.2859 43.902 95.9159 43.71 96.4079 43.326C96.8999 42.942 97.1459 42.45 97.1459 41.85V40.446H94.1219C93.5819 40.446 93.1559 40.596 92.8439 40.896C92.5319 41.196 92.3759 41.604 92.3759 42.12C92.3759 42.672 92.5619 43.11 92.9339 43.434C93.3179 43.746 93.8459 43.902 94.5179 43.902ZM105.851 45.18C105.059 45.18 104.363 45.03 103.763 44.73C103.175 44.43 102.719 43.998 102.395 43.434C102.071 42.858 101.909 42.18 101.909 41.4V38.7C101.909 37.908 102.071 37.23 102.395 36.666C102.719 36.102 103.175 35.67 103.763 35.37C104.363 35.07 105.059 34.92 105.851 34.92C106.991 34.92 107.909 35.226 108.605 35.838C109.301 36.45 109.667 37.284 109.703 38.34H108.083C108.047 37.704 107.831 37.218 107.435 36.882C107.051 36.534 106.523 36.36 105.851 36.36C105.143 36.36 104.579 36.564 104.159 36.972C103.739 37.368 103.529 37.938 103.529 38.682V41.4C103.529 42.144 103.739 42.72 104.159 43.128C104.579 43.536 105.143 43.74 105.851 43.74C106.523 43.74 107.051 43.566 107.435 43.218C107.831 42.87 108.047 42.384 108.083 41.76H109.703C109.667 42.816 109.301 43.65 108.605 44.262C107.909 44.874 106.991 45.18 105.851 45.18ZM117.652 45C116.8 45 116.134 44.772 115.654 44.316C115.186 43.86 114.952 43.218 114.952 42.39V36.576H112.162V35.1H114.952V32.31H116.572V35.1H120.532V36.576H116.572V42.39C116.572 43.146 116.932 43.524 117.652 43.524H120.352V45H117.652ZM137.618 45.18C136.358 45.18 135.368 44.826 134.648 44.118C133.928 43.41 133.568 42.444 133.568 41.22H135.188C135.188 42.024 135.398 42.648 135.818 43.092C136.25 43.524 136.85 43.74 137.618 43.74C138.386 43.74 138.98 43.524 139.4 43.092C139.832 42.648 140.048 42.024 140.048 41.22V33.336H136.898V31.86H141.668V41.22C141.668 42.444 141.302 43.41 140.57 44.118C139.85 44.826 138.866 45.18 137.618 45.18ZM149.023 45.18C148.159 45.18 147.415 45.036 146.791 44.748C146.179 44.46 145.705 44.046 145.369 43.506C145.033 42.966 144.859 42.324 144.847 41.58H146.467C146.467 42.24 146.689 42.762 147.133 43.146C147.589 43.53 148.219 43.722 149.023 43.722C149.779 43.722 150.367 43.536 150.787 43.164C151.219 42.792 151.435 42.276 151.435 41.616C151.435 41.088 151.291 40.626 151.003 40.23C150.727 39.834 150.325 39.558 149.797 39.402L148.015 38.844C147.115 38.568 146.419 38.106 145.927 37.458C145.447 36.81 145.207 36.048 145.207 35.172C145.207 34.464 145.363 33.852 145.675 33.336C145.999 32.808 146.449 32.4 147.025 32.112C147.601 31.812 148.279 31.662 149.059 31.662C150.211 31.662 151.135 31.986 151.831 32.634C152.527 33.27 152.881 34.122 152.893 35.19H151.273C151.273 34.542 151.075 34.038 150.679 33.678C150.295 33.306 149.749 33.12 149.041 33.12C148.345 33.12 147.799 33.288 147.403 33.624C147.019 33.96 146.827 34.428 146.827 35.028C146.827 35.568 146.971 36.036 147.259 36.432C147.547 36.828 147.961 37.11 148.501 37.278L150.301 37.854C151.177 38.13 151.855 38.598 152.335 39.258C152.815 39.918 153.055 40.692 153.055 41.58C153.055 42.3 152.887 42.93 152.551 43.47C152.215 44.01 151.741 44.43 151.129 44.73C150.529 45.03 149.827 45.18 149.023 45.18Z" fill="#4F4D4D"/>
<path d="M41.9998 45.6667C33.3998 45.6667 26.6665 42.7334 26.6665 39C26.6665 35.2667 33.3998 32.3334 41.9998 32.3334C50.5998 32.3334 57.3332 35.2667 57.3332 39C57.3332 42.7334 50.5998 45.6667 41.9998 45.6667ZM41.9998 33.6667C33.5998 33.6667 27.9998 36.4 27.9998 39C27.9998 41.6 33.5998 44.3334 41.9998 44.3334C50.3998 44.3334 55.9998 41.6 55.9998 39C55.9998 36.4 50.3998 33.6667 41.9998 33.6667Z" fill="#80DEEA"/>
<path d="M36.0666 52.7334C35.3999 52.7334 34.8666 52.6001 34.3332 52.2667C31.0666 50.4001 31.9332 43.1334 36.1999 35.6667C38.1999 32.2001 40.6666 29.2667 43.0666 27.4001C45.6666 25.4001 47.9999 24.8001 49.5999 25.7334C51.2666 26.6667 51.8666 29.0001 51.4666 32.2667C51.0666 35.3334 49.7332 38.9334 47.7332 42.4001C45.7332 45.8667 43.2666 48.8001 40.8666 50.6667C39.1332 52.0001 37.4666 52.7334 36.0666 52.7334ZM47.9332 26.6001C46.8666 26.6001 45.4666 27.2001 43.9332 28.4001C41.6666 30.2001 39.3332 33.0001 37.3999 36.3334C33.1999 43.6001 32.7999 49.8667 34.9999 51.1334C36.1332 51.8001 37.9999 51.2001 40.0666 49.6001C42.3332 47.8001 44.6666 45.0001 46.5999 41.6667C48.5332 38.3334 49.7999 34.9334 50.1999 32.0667C50.5332 29.4001 50.1332 27.5334 48.9999 26.8667C48.6666 26.7334 48.3332 26.6001 47.9332 26.6001Z" fill="#80DEEA"/>
<path d="M48.0002 52.7334C44.6669 52.7334 39.8669 48.6667 36.2669 42.3334C31.9335 34.8667 31.0669 27.6 34.3335 25.7334C37.6002 23.8667 43.4669 28.2 47.8002 35.6667C49.8002 39.1334 51.1335 42.7334 51.5335 45.8C52.0002 49.0667 51.3335 51.3334 49.6669 52.3334C49.1335 52.6 48.6002 52.7334 48.0002 52.7334ZM35.0002 26.8667C32.8002 28.1334 33.2002 34.4 37.4002 41.6667C41.6002 48.9334 46.8002 52.4 49.0002 51.1334C50.1335 50.4667 50.5335 48.6 50.2002 45.9334C49.8002 43.0667 48.5335 39.6667 46.6002 36.3334C42.4002 29.0667 37.2002 25.6 35.0002 26.8667Z" fill="#80DEEA"/>
<path d="M42.0002 41.6667C43.4729 41.6667 44.6668 40.4728 44.6668 39C44.6668 37.5273 43.4729 36.3334 42.0002 36.3334C40.5274 36.3334 39.3335 37.5273 39.3335 39C39.3335 40.4728 40.5274 41.6667 42.0002 41.6667Z" fill="#80DEEA"/>
<defs>
<filter id="filter0_d_115_83" x="0" y="0" width="186" height="84" filterUnits="userSpaceOnUse" color-interpolation-filters="sRGB">
<feFlood flood-opacity="0" result="BackgroundImageFix"/>
<feColorMatrix in="SourceAlpha" type="matrix" values="0 0 0 0 0 0 0 0 0 0 0 0 0 0 0 0 0 0 127 0" result="hardAlpha"/>
<feOffset dx="4" dy="4"/>
<feGaussianBlur stdDeviation="9"/>
<feComposite in2="hardAlpha" operator="out"/>
<feColorMatrix type="matrix" values="0 0 0 0 0 0 0 0 0 0 0 0 0 0 0 0 0 0 0.1 0"/>
<feBlend mode="normal" in2="BackgroundImageFix" result="effect1_dropShadow_115_83"/>
<feBlend mode="normal" in="SourceGraphic" in2="effect1_dropShadow_115_83" result="shape"/>
</filter>
</defs>
</svg>
