<svg width="221" height="84" viewBox="0 0 221 84" fill="none" xmlns="http://www.w3.org/2000/svg">
<g filter="url(#filter0_d_115_84)">
<rect x="14" y="14" width="185" height="48" rx="8" fill="white"/>
</g>
<path d="M73.472 45.18C72.608 45.18 71.864 45.036 71.24 44.748C70.628 44.46 70.154 44.046 69.818 43.506C69.482 42.966 69.308 42.324 69.296 41.58H70.916C70.916 42.24 71.138 42.762 71.582 43.146C72.038 43.53 72.668 43.722 73.472 43.722C74.228 43.722 74.816 43.536 75.236 43.164C75.668 42.792 75.884 42.276 75.884 41.616C75.884 41.088 75.74 40.626 75.452 40.23C75.176 39.834 74.774 39.558 74.246 39.402L72.464 38.844C71.564 38.568 70.868 38.106 70.376 37.458C69.896 36.81 69.656 36.048 69.656 35.172C69.656 34.464 69.812 33.852 70.124 33.336C70.448 32.808 70.898 32.4 71.474 32.112C72.05 31.812 72.728 31.662 73.508 31.662C74.66 31.662 75.584 31.986 76.28 32.634C76.976 33.27 77.33 34.122 77.342 35.19H75.722C75.722 34.542 75.524 34.038 75.128 33.678C74.744 33.306 74.198 33.12 73.49 33.12C72.794 33.12 72.248 33.288 71.852 33.624C71.468 33.96 71.276 34.428 71.276 35.028C71.276 35.568 71.42 36.036 71.708 36.432C71.996 36.828 72.41 37.11 72.95 37.278L74.75 37.854C75.626 38.13 76.304 38.598 76.784 39.258C77.264 39.918 77.504 40.692 77.504 41.58C77.504 42.3 77.336 42.93 77 43.47C76.664 44.01 76.19 44.43 75.578 44.73C74.978 45.03 74.276 45.18 73.472 45.18ZM80.449 48.24V35.1H82.069V36.99H82.393L82.069 37.368C82.069 36.612 82.315 36.018 82.807 35.586C83.311 35.142 83.971 34.92 84.787 34.92C85.783 34.92 86.575 35.25 87.163 35.91C87.763 36.558 88.063 37.452 88.063 38.592V41.49C88.063 42.246 87.925 42.9 87.649 43.452C87.385 44.004 87.007 44.43 86.515 44.73C86.035 45.03 85.459 45.18 84.787 45.18C83.983 45.18 83.329 44.958 82.825 44.514C82.321 44.07 82.069 43.476 82.069 42.732L82.393 43.11H82.033L82.069 45.36V48.24H80.449ZM84.247 43.776C84.931 43.776 85.465 43.572 85.849 43.164C86.245 42.756 86.443 42.168 86.443 41.4V38.7C86.443 37.932 86.245 37.344 85.849 36.936C85.465 36.528 84.931 36.324 84.247 36.324C83.587 36.324 83.059 36.534 82.663 36.954C82.267 37.374 82.069 37.956 82.069 38.7V41.4C82.069 42.144 82.267 42.726 82.663 43.146C83.059 43.566 83.587 43.776 84.247 43.776ZM91.5839 45V35.1H93.1679V36.99H93.5459L93.0239 38.16C93.0239 37.092 93.2519 36.288 93.7079 35.748C94.1759 35.196 94.8659 34.92 95.7779 34.92C96.8219 34.92 97.6499 35.25 98.2619 35.91C98.8859 36.558 99.1979 37.44 99.1979 38.556V39.15H97.5779V38.7C97.5779 37.92 97.3859 37.326 97.0019 36.918C96.6299 36.498 96.0959 36.288 95.3999 36.288C94.7159 36.288 94.1759 36.498 93.7799 36.918C93.3959 37.338 93.2039 37.932 93.2039 38.7V45H91.5839ZM101.909 45V43.524H105.419V36.576H102.359V35.1H107.039V43.524H110.369V45H101.909ZM106.049 33.318C105.653 33.318 105.341 33.216 105.113 33.012C104.885 32.808 104.771 32.532 104.771 32.184C104.771 31.824 104.885 31.542 105.113 31.338C105.341 31.122 105.653 31.014 106.049 31.014C106.445 31.014 106.757 31.122 106.985 31.338C107.213 31.542 107.327 31.824 107.327 32.184C107.327 32.532 107.213 32.808 106.985 33.012C106.757 33.216 106.445 33.318 106.049 33.318ZM112.828 45V35.1H114.448V36.99H114.79L114.448 37.368C114.448 36.588 114.682 35.988 115.15 35.568C115.618 35.136 116.266 34.92 117.094 34.92C118.09 34.92 118.882 35.226 119.47 35.838C120.058 36.45 120.352 37.284 120.352 38.34V45H118.732V38.52C118.732 37.812 118.54 37.272 118.156 36.9C117.784 36.516 117.274 36.324 116.626 36.324C115.954 36.324 115.42 36.528 115.024 36.936C114.64 37.344 114.448 37.932 114.448 38.7V45H112.828ZM124.863 48.24V46.764H128.013C128.517 46.764 128.883 46.65 129.111 46.422C129.351 46.194 129.471 45.84 129.471 45.36V44.1L129.507 42.3H129.183L129.489 42.03C129.489 42.75 129.249 43.32 128.769 43.74C128.289 44.16 127.647 44.37 126.843 44.37C125.823 44.37 125.019 44.04 124.431 43.38C123.843 42.708 123.549 41.808 123.549 40.68V38.592C123.549 37.464 123.843 36.57 124.431 35.91C125.019 35.25 125.823 34.92 126.843 34.92C127.647 34.92 128.289 35.13 128.769 35.55C129.249 35.97 129.489 36.54 129.489 37.26L129.183 36.99H129.489V35.1H131.091V45.36C131.091 46.248 130.815 46.95 130.263 47.466C129.723 47.982 128.967 48.24 127.995 48.24H124.863ZM127.329 42.966C128.001 42.966 128.529 42.756 128.913 42.336C129.297 41.916 129.489 41.334 129.489 40.59V38.7C129.489 37.956 129.297 37.374 128.913 36.954C128.529 36.534 128.001 36.324 127.329 36.324C126.645 36.324 126.111 36.528 125.727 36.936C125.355 37.344 125.169 37.932 125.169 38.7V40.59C125.169 41.358 125.355 41.946 125.727 42.354C126.111 42.762 126.645 42.966 127.329 42.966ZM145.225 45V31.86H148.951C150.151 31.86 151.087 32.16 151.759 32.76C152.443 33.36 152.785 34.194 152.785 35.262C152.785 35.862 152.659 36.384 152.407 36.828C152.155 37.272 151.795 37.614 151.327 37.854C150.871 38.094 150.319 38.208 149.671 38.196V37.926C150.367 37.914 150.967 38.046 151.471 38.322C151.987 38.598 152.383 38.994 152.659 39.51C152.947 40.026 153.091 40.638 153.091 41.346C153.091 42.09 152.935 42.738 152.623 43.29C152.311 43.842 151.867 44.268 151.291 44.568C150.715 44.856 150.025 45 149.221 45H145.225ZM146.809 43.542H149.041C149.797 43.542 150.391 43.344 150.823 42.948C151.267 42.54 151.489 41.988 151.489 41.292C151.489 40.572 151.267 39.99 150.823 39.546C150.391 39.09 149.797 38.862 149.041 38.862H146.809V43.542ZM146.809 37.458H148.933C149.629 37.458 150.175 37.272 150.571 36.9C150.979 36.528 151.183 36.024 151.183 35.388C151.183 34.752 150.985 34.248 150.589 33.876C150.193 33.504 149.647 33.318 148.951 33.318H146.809V37.458ZM159.744 45.144C158.952 45.144 158.268 44.994 157.692 44.694C157.116 44.394 156.666 43.962 156.342 43.398C156.03 42.822 155.874 42.144 155.874 41.364V38.736C155.874 37.944 156.03 37.266 156.342 36.702C156.666 36.138 157.116 35.706 157.692 35.406C158.268 35.106 158.952 34.956 159.744 34.956C160.536 34.956 161.22 35.106 161.796 35.406C162.372 35.706 162.816 36.138 163.128 36.702C163.452 37.266 163.614 37.938 163.614 38.718V41.364C163.614 42.144 163.452 42.822 163.128 43.398C162.816 43.962 162.372 44.394 161.796 44.694C161.22 44.994 160.536 45.144 159.744 45.144ZM159.744 43.704C160.452 43.704 161.004 43.506 161.4 43.11C161.796 42.714 161.994 42.132 161.994 41.364V38.736C161.994 37.968 161.796 37.386 161.4 36.99C161.004 36.594 160.452 36.396 159.744 36.396C159.048 36.396 158.496 36.594 158.088 36.99C157.692 37.386 157.494 37.968 157.494 38.736V41.364C157.494 42.132 157.692 42.714 158.088 43.11C158.496 43.506 159.048 43.704 159.744 43.704ZM170.537 45.144C169.745 45.144 169.061 44.994 168.485 44.694C167.909 44.394 167.459 43.962 167.135 43.398C166.823 42.822 166.667 42.144 166.667 41.364V38.736C166.667 37.944 166.823 37.266 167.135 36.702C167.459 36.138 167.909 35.706 168.485 35.406C169.061 35.106 169.745 34.956 170.537 34.956C171.329 34.956 172.013 35.106 172.589 35.406C173.165 35.706 173.609 36.138 173.921 36.702C174.245 37.266 174.407 37.938 174.407 38.718V41.364C174.407 42.144 174.245 42.822 173.921 43.398C173.609 43.962 173.165 44.394 172.589 44.694C172.013 44.994 171.329 45.144 170.537 45.144ZM170.537 43.704C171.245 43.704 171.797 43.506 172.193 43.11C172.589 42.714 172.787 42.132 172.787 41.364V38.736C172.787 37.968 172.589 37.386 172.193 36.99C171.797 36.594 171.245 36.396 170.537 36.396C169.841 36.396 169.289 36.594 168.881 36.99C168.485 37.386 168.287 37.968 168.287 38.736V41.364C168.287 42.132 168.485 42.714 168.881 43.11C169.289 43.506 169.841 43.704 170.537 43.704ZM182.41 45C181.558 45 180.892 44.772 180.412 44.316C179.944 43.86 179.71 43.218 179.71 42.39V36.576H176.92V35.1H179.71V32.31H181.33V35.1H185.29V36.576H181.33V42.39C181.33 43.146 181.69 43.524 182.41 43.524H185.11V45H182.41Z" fill="#4F4D4D"/>
<path d="M55.3212 38.7567C55.3672 35.916 54.7272 32.538 53.3938 28.5747L52.3485 25.4667L50.9285 28.422C50.8525 28.58 50.7658 28.7347 50.6752 28.8873C48.3425 26.8847 45.3158 25.6667 41.9998 25.6667C34.6358 25.6667 28.6665 31.636 28.6665 39C28.6665 46.364 34.6358 52.3333 41.9998 52.3333C49.3638 52.3333 55.3332 46.364 55.3332 39C55.3332 38.918 55.3225 38.8387 55.3212 38.7567Z" fill="#8BC34A"/>
<path d="M52.2565 44.7053C50.1745 47.5733 46.4892 47.7273 43.0206 47.6667H38.4999H37.2079C40.1599 46.6047 41.9165 46.352 43.7105 45.4C47.0892 43.6233 50.4292 39.736 51.1246 35.692C49.8379 39.5827 45.9385 42.9253 42.3852 44.2847C39.9505 45.2133 35.5532 46.1147 35.5532 46.1147L35.3752 46.018C32.3819 44.512 32.2912 37.8093 37.7332 35.6453C40.1159 34.6967 42.3952 35.218 44.9692 34.5833C47.7172 33.9087 50.8959 31.778 52.1892 29C53.6372 33.4447 55.3799 40.404 52.2565 44.7053ZM36.4452 48.63C36.2572 48.8633 35.9699 49 35.6699 49C35.1212 49 34.6732 48.5487 34.6732 48C34.6732 47.4513 35.1246 47 35.6699 47C35.8972 47 36.1212 47.0787 36.2972 47.224C36.7239 47.57 36.7906 48.2033 36.4452 48.63Z" fill="white"/>
<defs>
<filter id="filter0_d_115_84" x="0" y="0" width="221" height="84" filterUnits="userSpaceOnUse" color-interpolation-filters="sRGB">
<feFlood flood-opacity="0" result="BackgroundImageFix"/>
<feColorMatrix in="SourceAlpha" type="matrix" values="0 0 0 0 0 0 0 0 0 0 0 0 0 0 0 0 0 0 127 0" result="hardAlpha"/>
<feOffset dx="4" dy="4"/>
<feGaussianBlur stdDeviation="9"/>
<feComposite in2="hardAlpha" operator="out"/>
<feColorMatrix type="matrix" values="0 0 0 0 0 0 0 0 0 0 0 0 0 0 0 0 0 0 0.1 0"/>
<feBlend mode="normal" in2="BackgroundImageFix" result="effect1_dropShadow_115_84"/>
<feBlend mode="normal" in="SourceGraphic" in2="effect1_dropShadow_115_84" result="shape"/>
</filter>
</defs>
</svg>
