<svg width="158" height="68" viewBox="0 0 158 68" fill="none" xmlns="http://www.w3.org/2000/svg">
<g filter="url(#filter0_d_116_258)">
<rect x="14" y="14" width="122" height="32" rx="8" fill="white"/>
<rect x="14.5" y="14.5" width="121" height="31" rx="7.5" stroke="#BCBEC0"/>
</g>
<path d="M43.991 29.8175C44.0255 27.687 43.5455 25.1535 42.5455 22.181L41.7615 19.85L40.6965 22.0665C40.6395 22.185 40.5745 22.301 40.5065 22.4155C38.757 20.9135 36.487 20 34 20C28.477 20 24 24.477 24 30C24 35.523 28.477 40 34 40C39.523 40 44 35.523 44 30C44 29.9385 43.992 29.879 43.991 29.8175Z" fill="#8BC34A"/>
<path d="M41.6927 34.279C40.1312 36.43 37.3672 36.5455 34.7657 36.5H31.3752H30.4062C32.6202 35.7035 33.9377 35.514 35.2832 34.8C37.8172 33.4675 40.3222 30.552 40.8437 27.519C39.8787 30.437 36.9542 32.944 34.2892 33.9635C32.4632 34.66 29.1652 35.336 29.1652 35.336L29.0317 35.2635C26.7867 34.134 26.7187 29.107 30.8002 27.484C32.5872 26.7725 34.2967 27.1635 36.2272 26.6875C38.2882 26.1815 40.6722 24.5835 41.6422 22.5C42.7282 25.8335 44.0352 31.053 41.6927 34.279ZM29.8342 37.2225C29.6932 37.3975 29.4777 37.5 29.2527 37.5C28.8412 37.5 28.5052 37.1615 28.5052 36.75C28.5052 36.3385 28.8437 36 29.2527 36C29.4232 36 29.5912 36.059 29.7232 36.168C30.0432 36.4275 30.0932 36.9025 29.8342 37.2225Z" fill="white"/>
<path d="M57.648 34.12C57.072 34.12 56.576 34.024 56.16 33.832C55.752 33.64 55.436 33.364 55.212 33.004C54.988 32.644 54.872 32.216 54.864 31.72H55.944C55.944 32.16 56.092 32.508 56.388 32.764C56.692 33.02 57.112 33.148 57.648 33.148C58.152 33.148 58.544 33.024 58.824 32.776C59.112 32.528 59.256 32.184 59.256 31.744C59.256 31.392 59.16 31.084 58.968 30.82C58.784 30.556 58.516 30.372 58.164 30.268L56.976 29.896C56.376 29.712 55.912 29.404 55.584 28.972C55.264 28.54 55.104 28.032 55.104 27.448C55.104 26.976 55.208 26.568 55.416 26.224C55.632 25.872 55.932 25.6 56.316 25.408C56.7 25.208 57.152 25.108 57.672 25.108C58.44 25.108 59.056 25.324 59.52 25.756C59.984 26.18 60.22 26.748 60.228 27.46H59.148C59.148 27.028 59.016 26.692 58.752 26.452C58.496 26.204 58.132 26.08 57.66 26.08C57.196 26.08 56.832 26.192 56.568 26.416C56.312 26.64 56.184 26.952 56.184 27.352C56.184 27.712 56.28 28.024 56.472 28.288C56.664 28.552 56.94 28.74 57.3 28.852L58.5 29.236C59.084 29.42 59.536 29.732 59.856 30.172C60.176 30.612 60.336 31.128 60.336 31.72C60.336 32.2 60.224 32.62 60 32.98C59.776 33.34 59.46 33.62 59.052 33.82C58.652 34.02 58.184 34.12 57.648 34.12ZM62.2993 36.16V27.4H63.3793V28.66H63.5953L63.3793 28.912C63.3793 28.408 63.5433 28.012 63.8713 27.724C64.2073 27.428 64.6473 27.28 65.1913 27.28C65.8553 27.28 66.3833 27.5 66.7753 27.94C67.1753 28.372 67.3753 28.968 67.3753 29.728V31.66C67.3753 32.164 67.2833 32.6 67.0993 32.968C66.9233 33.336 66.6713 33.62 66.3433 33.82C66.0233 34.02 65.6393 34.12 65.1913 34.12C64.6553 34.12 64.2193 33.972 63.8833 33.676C63.5473 33.38 63.3793 32.984 63.3793 32.488L63.5953 32.74H63.3553L63.3793 34.24V36.16H62.2993ZM64.8313 33.184C65.2873 33.184 65.6433 33.048 65.8993 32.776C66.1633 32.504 66.2953 32.112 66.2953 31.6V29.8C66.2953 29.288 66.1633 28.896 65.8993 28.624C65.6433 28.352 65.2873 28.216 64.8313 28.216C64.3913 28.216 64.0393 28.356 63.7753 28.636C63.5113 28.916 63.3793 29.304 63.3793 29.8V31.6C63.3793 32.096 63.5113 32.484 63.7753 32.764C64.0393 33.044 64.3913 33.184 64.8313 33.184ZM69.7226 34V27.4H70.7786V28.66H71.0306L70.6826 29.44C70.6826 28.728 70.8346 28.192 71.1386 27.832C71.4506 27.464 71.9106 27.28 72.5186 27.28C73.2146 27.28 73.7666 27.5 74.1746 27.94C74.5906 28.372 74.7986 28.96 74.7986 29.704V30.1H73.7186V29.8C73.7186 29.28 73.5906 28.884 73.3346 28.612C73.0866 28.332 72.7306 28.192 72.2666 28.192C71.8106 28.192 71.4506 28.332 71.1866 28.612C70.9306 28.892 70.8026 29.288 70.8026 29.8V34H69.7226ZM76.6059 34V33.016H78.9459V28.384H76.9059V27.4H80.0259V33.016H82.2459V34H76.6059ZM79.3659 26.212C79.1019 26.212 78.8939 26.144 78.7419 26.008C78.5899 25.872 78.5139 25.688 78.5139 25.456C78.5139 25.216 78.5899 25.028 78.7419 24.892C78.8939 24.748 79.1019 24.676 79.3659 24.676C79.6299 24.676 79.8379 24.748 79.9899 24.892C80.1419 25.028 80.2179 25.216 80.2179 25.456C80.2179 25.688 80.1419 25.872 79.9899 26.008C79.8379 26.144 79.6299 26.212 79.3659 26.212ZM83.8853 34V27.4H84.9653V28.66H85.1933L84.9653 28.912C84.9653 28.392 85.1213 27.992 85.4333 27.712C85.7453 27.424 86.1773 27.28 86.7293 27.28C87.3933 27.28 87.9213 27.484 88.3133 27.892C88.7053 28.3 88.9013 28.856 88.9013 29.56V34H87.8213V29.68C87.8213 29.208 87.6933 28.848 87.4373 28.6C87.1893 28.344 86.8493 28.216 86.4173 28.216C85.9693 28.216 85.6133 28.352 85.3493 28.624C85.0933 28.896 84.9653 29.288 84.9653 29.8V34H83.8853ZM91.9086 36.16V35.176H94.0086C94.3446 35.176 94.5886 35.1 94.7406 34.948C94.9006 34.796 94.9806 34.56 94.9806 34.24V33.4L95.0046 32.2H94.7886L94.9926 32.02C94.9926 32.5 94.8326 32.88 94.5126 33.16C94.1926 33.44 93.7646 33.58 93.2286 33.58C92.5486 33.58 92.0126 33.36 91.6206 32.92C91.2286 32.472 91.0326 31.872 91.0326 31.12V29.728C91.0326 28.976 91.2286 28.38 91.6206 27.94C92.0126 27.5 92.5486 27.28 93.2286 27.28C93.7646 27.28 94.1926 27.42 94.5126 27.7C94.8326 27.98 94.9926 28.36 94.9926 28.84L94.7886 28.66H94.9926V27.4H96.0606V34.24C96.0606 34.832 95.8766 35.3 95.5086 35.644C95.1486 35.988 94.6446 36.16 93.9966 36.16H91.9086ZM93.5526 32.644C94.0006 32.644 94.3526 32.504 94.6086 32.224C94.8646 31.944 94.9926 31.556 94.9926 31.06V29.8C94.9926 29.304 94.8646 28.916 94.6086 28.636C94.3526 28.356 94.0006 28.216 93.5526 28.216C93.0966 28.216 92.7406 28.352 92.4846 28.624C92.2366 28.896 92.1126 29.288 92.1126 29.8V31.06C92.1126 31.572 92.2366 31.964 92.4846 32.236C92.7406 32.508 93.0966 32.644 93.5526 32.644ZM98.2879 34V25.24H100.772C101.572 25.24 102.196 25.44 102.644 25.84C103.1 26.24 103.328 26.796 103.328 27.508C103.328 27.908 103.244 28.256 103.076 28.552C102.908 28.848 102.668 29.076 102.356 29.236C102.052 29.396 101.684 29.472 101.252 29.464V29.284C101.716 29.276 102.116 29.364 102.452 29.548C102.796 29.732 103.06 29.996 103.244 30.34C103.436 30.684 103.532 31.092 103.532 31.564C103.532 32.06 103.428 32.492 103.22 32.86C103.012 33.228 102.716 33.512 102.332 33.712C101.948 33.904 101.488 34 100.952 34H98.2879ZM99.3439 33.028H100.832C101.336 33.028 101.732 32.896 102.02 32.632C102.316 32.36 102.464 31.992 102.464 31.528C102.464 31.048 102.316 30.66 102.02 30.364C101.732 30.06 101.336 29.908 100.832 29.908H99.3439V33.028ZM99.3439 28.972H100.76C101.224 28.972 101.588 28.848 101.852 28.6C102.124 28.352 102.26 28.016 102.26 27.592C102.26 27.168 102.128 26.832 101.864 26.584C101.6 26.336 101.236 26.212 100.772 26.212H99.3439V28.972ZM107.967 34.096C107.439 34.096 106.983 33.996 106.599 33.796C106.215 33.596 105.915 33.308 105.699 32.932C105.491 32.548 105.387 32.096 105.387 31.576V29.824C105.387 29.296 105.491 28.844 105.699 28.468C105.915 28.092 106.215 27.804 106.599 27.604C106.983 27.404 107.439 27.304 107.967 27.304C108.495 27.304 108.951 27.404 109.335 27.604C109.719 27.804 110.015 28.092 110.223 28.468C110.439 28.844 110.547 29.292 110.547 29.812V31.576C110.547 32.096 110.439 32.548 110.223 32.932C110.015 33.308 109.719 33.596 109.335 33.796C108.951 33.996 108.495 34.096 107.967 34.096ZM107.967 33.136C108.439 33.136 108.807 33.004 109.071 32.74C109.335 32.476 109.467 32.088 109.467 31.576V29.824C109.467 29.312 109.335 28.924 109.071 28.66C108.807 28.396 108.439 28.264 107.967 28.264C107.503 28.264 107.135 28.396 106.863 28.66C106.599 28.924 106.467 29.312 106.467 29.824V31.576C106.467 32.088 106.599 32.476 106.863 32.74C107.135 33.004 107.503 33.136 107.967 33.136ZM115.163 34.096C114.635 34.096 114.179 33.996 113.795 33.796C113.411 33.596 113.111 33.308 112.895 32.932C112.687 32.548 112.583 32.096 112.583 31.576V29.824C112.583 29.296 112.687 28.844 112.895 28.468C113.111 28.092 113.411 27.804 113.795 27.604C114.179 27.404 114.635 27.304 115.163 27.304C115.691 27.304 116.147 27.404 116.531 27.604C116.915 27.804 117.211 28.092 117.419 28.468C117.635 28.844 117.743 29.292 117.743 29.812V31.576C117.743 32.096 117.635 32.548 117.419 32.932C117.211 33.308 116.915 33.596 116.531 33.796C116.147 33.996 115.691 34.096 115.163 34.096ZM115.163 33.136C115.635 33.136 116.003 33.004 116.267 32.74C116.531 32.476 116.663 32.088 116.663 31.576V29.824C116.663 29.312 116.531 28.924 116.267 28.66C116.003 28.396 115.635 28.264 115.163 28.264C114.699 28.264 114.331 28.396 114.059 28.66C113.795 28.924 113.663 29.312 113.663 29.824V31.576C113.663 32.088 113.795 32.476 114.059 32.74C114.331 33.004 114.699 33.136 115.163 33.136ZM123.078 34C122.51 34 122.066 33.848 121.746 33.544C121.434 33.24 121.278 32.812 121.278 32.26V28.384H119.418V27.4H121.278V25.54H122.358V27.4H124.998V28.384H122.358V32.26C122.358 32.764 122.598 33.016 123.078 33.016H124.878V34H123.078Z" fill="#4F4D4D"/>
<defs>
<filter id="filter0_d_116_258" x="0" y="0" width="158" height="68" filterUnits="userSpaceOnUse" color-interpolation-filters="sRGB">
<feFlood flood-opacity="0" result="BackgroundImageFix"/>
<feColorMatrix in="SourceAlpha" type="matrix" values="0 0 0 0 0 0 0 0 0 0 0 0 0 0 0 0 0 0 127 0" result="hardAlpha"/>
<feOffset dx="4" dy="4"/>
<feGaussianBlur stdDeviation="9"/>
<feComposite in2="hardAlpha" operator="out"/>
<feColorMatrix type="matrix" values="0 0 0 0 0 0 0 0 0 0 0 0 0 0 0 0 0 0 0.1 0"/>
<feBlend mode="normal" in2="BackgroundImageFix" result="effect1_dropShadow_116_258"/>
<feBlend mode="normal" in="SourceGraphic" in2="effect1_dropShadow_116_258" result="shape"/>
</filter>
</defs>
</svg>
