<svg width="122" height="32" viewBox="0 0 122 32" fill="none" xmlns="http://www.w3.org/2000/svg">
<style>
        rect {
             fill: #00000; <!-- set icon color for light mode -->
        }
        path {
      fill: #00000; <!-- set icon color for light mode -->
    }

      svg {
        background-color: white;
        color-scheme:light dark;
      }
      @media (prefers-color-scheme:dark) {
        svg {
          background-color: black;
        }
        rect {
             fill: #212121; <!-- set icon color for light mode -->
        }
        #gh-dark-mode-only{
      fill: #ffffff; <!-- set icon color for light mode -->
    }

      }
    </style>
<rect x="0.5" y="0.5" width="121" height="31" rx="7.5" fill="white" stroke="#BCBEC0"/>
<path d="M29.991 15.8175C30.0255 13.687 29.5455 11.1535 28.5455 8.18098L27.7615 5.84998L26.6965 8.06648C26.6395 8.18498 26.5745 8.30098 26.5065 8.41548C24.757 6.91348 22.487 5.99998 20 5.99998C14.477 5.99998 10 10.477 10 16C10 21.523 14.477 26 20 26C25.523 26 30 21.523 30 16C30 15.9385 29.992 15.879 29.991 15.8175Z" fill="#8BC34A"/>
<path d="M27.6927 20.279C26.1312 22.43 23.3672 22.5455 20.7657 22.5H17.3752H16.4062C18.6202 21.7035 19.9377 21.514 21.2832 20.8C23.8172 19.4675 26.3222 16.552 26.8437 13.519C25.8787 16.437 22.9542 18.944 20.2892 19.9635C18.4632 20.66 15.1652 21.336 15.1652 21.336L15.0317 21.2635C12.7867 20.134 12.7187 15.107 16.8002 13.484C18.5872 12.7725 20.2967 13.1635 22.2272 12.6875C24.2882 12.1815 26.6722 10.5835 27.6422 8.5C28.7282 11.8335 30.0352 17.053 27.6927 20.279ZM15.8342 23.2225C15.6932 23.3975 15.4777 23.5 15.2527 23.5C14.8412 23.5 14.5052 23.1615 14.5052 22.75C14.5052 22.3385 14.8437 22 15.2527 22C15.4232 22 15.5912 22.059 15.7232 22.168C16.0432 22.4275 16.0932 22.9025 15.8342 23.2225Z" fill="white"/>
<path id="gh-dark-mode-only" d="M43.648 20.12C43.072 20.12 42.576 20.024 42.16 19.832C41.752 19.64 41.436 19.364 41.212 19.004C40.988 18.644 40.872 18.216 40.864 17.72H41.944C41.944 18.16 42.092 18.508 42.388 18.764C42.692 19.02 43.112 19.148 43.648 19.148C44.152 19.148 44.544 19.024 44.824 18.776C45.112 18.528 45.256 18.184 45.256 17.744C45.256 17.392 45.16 17.084 44.968 16.82C44.784 16.556 44.516 16.372 44.164 16.268L42.976 15.896C42.376 15.712 41.912 15.404 41.584 14.972C41.264 14.54 41.104 14.032 41.104 13.448C41.104 12.976 41.208 12.568 41.416 12.224C41.632 11.872 41.932 11.6 42.316 11.408C42.7 11.208 43.152 11.108 43.672 11.108C44.44 11.108 45.056 11.324 45.52 11.756C45.984 12.18 46.22 12.748 46.228 13.46H45.148C45.148 13.028 45.016 12.692 44.752 12.452C44.496 12.204 44.132 12.08 43.66 12.08C43.196 12.08 42.832 12.192 42.568 12.416C42.312 12.64 42.184 12.952 42.184 13.352C42.184 13.712 42.28 14.024 42.472 14.288C42.664 14.552 42.94 14.74 43.3 14.852L44.5 15.236C45.084 15.42 45.536 15.732 45.856 16.172C46.176 16.612 46.336 17.128 46.336 17.72C46.336 18.2 46.224 18.62 46 18.98C45.776 19.34 45.46 19.62 45.052 19.82C44.652 20.02 44.184 20.12 43.648 20.12ZM48.2993 22.16V13.4H49.3793V14.66H49.5953L49.3793 14.912C49.3793 14.408 49.5433 14.012 49.8713 13.724C50.2073 13.428 50.6473 13.28 51.1913 13.28C51.8553 13.28 52.3833 13.5 52.7753 13.94C53.1753 14.372 53.3753 14.968 53.3753 15.728V17.66C53.3753 18.164 53.2833 18.6 53.0993 18.968C52.9233 19.336 52.6713 19.62 52.3433 19.82C52.0233 20.02 51.6393 20.12 51.1913 20.12C50.6553 20.12 50.2193 19.972 49.8833 19.676C49.5473 19.38 49.3793 18.984 49.3793 18.488L49.5953 18.74H49.3553L49.3793 20.24V22.16H48.2993ZM50.8313 19.184C51.2873 19.184 51.6433 19.048 51.8993 18.776C52.1633 18.504 52.2953 18.112 52.2953 17.6V15.8C52.2953 15.288 52.1633 14.896 51.8993 14.624C51.6433 14.352 51.2873 14.216 50.8313 14.216C50.3913 14.216 50.0393 14.356 49.7753 14.636C49.5113 14.916 49.3793 15.304 49.3793 15.8V17.6C49.3793 18.096 49.5113 18.484 49.7753 18.764C50.0393 19.044 50.3913 19.184 50.8313 19.184ZM55.7226 20V13.4H56.7786V14.66H57.0306L56.6826 15.44C56.6826 14.728 56.8346 14.192 57.1386 13.832C57.4506 13.464 57.9106 13.28 58.5186 13.28C59.2146 13.28 59.7666 13.5 60.1746 13.94C60.5906 14.372 60.7986 14.96 60.7986 15.704V16.1H59.7186V15.8C59.7186 15.28 59.5906 14.884 59.3346 14.612C59.0866 14.332 58.7306 14.192 58.2666 14.192C57.8106 14.192 57.4506 14.332 57.1866 14.612C56.9306 14.892 56.8026 15.288 56.8026 15.8V20H55.7226ZM62.6059 20V19.016H64.9459V14.384H62.9059V13.4H66.0259V19.016H68.2459V20H62.6059ZM65.3659 12.212C65.1019 12.212 64.8939 12.144 64.7419 12.008C64.5899 11.872 64.5139 11.688 64.5139 11.456C64.5139 11.216 64.5899 11.028 64.7419 10.892C64.8939 10.748 65.1019 10.676 65.3659 10.676C65.6299 10.676 65.8379 10.748 65.9899 10.892C66.1419 11.028 66.2179 11.216 66.2179 11.456C66.2179 11.688 66.1419 11.872 65.9899 12.008C65.8379 12.144 65.6299 12.212 65.3659 12.212ZM69.8853 20V13.4H70.9653V14.66H71.1933L70.9653 14.912C70.9653 14.392 71.1213 13.992 71.4333 13.712C71.7453 13.424 72.1773 13.28 72.7293 13.28C73.3933 13.28 73.9213 13.484 74.3133 13.892C74.7053 14.3 74.9013 14.856 74.9013 15.56V20H73.8213V15.68C73.8213 15.208 73.6933 14.848 73.4373 14.6C73.1893 14.344 72.8493 14.216 72.4173 14.216C71.9693 14.216 71.6133 14.352 71.3493 14.624C71.0933 14.896 70.9653 15.288 70.9653 15.8V20H69.8853ZM77.9086 22.16V21.176H80.0086C80.3446 21.176 80.5886 21.1 80.7406 20.948C80.9006 20.796 80.9806 20.56 80.9806 20.24V19.4L81.0046 18.2H80.7886L80.9926 18.02C80.9926 18.5 80.8326 18.88 80.5126 19.16C80.1926 19.44 79.7646 19.58 79.2286 19.58C78.5486 19.58 78.0126 19.36 77.6206 18.92C77.2286 18.472 77.0326 17.872 77.0326 17.12V15.728C77.0326 14.976 77.2286 14.38 77.6206 13.94C78.0126 13.5 78.5486 13.28 79.2286 13.28C79.7646 13.28 80.1926 13.42 80.5126 13.7C80.8326 13.98 80.9926 14.36 80.9926 14.84L80.7886 14.66H80.9926V13.4H82.0606V20.24C82.0606 20.832 81.8766 21.3 81.5086 21.644C81.1486 21.988 80.6446 22.16 79.9966 22.16H77.9086ZM79.5526 18.644C80.0006 18.644 80.3526 18.504 80.6086 18.224C80.8646 17.944 80.9926 17.556 80.9926 17.06V15.8C80.9926 15.304 80.8646 14.916 80.6086 14.636C80.3526 14.356 80.0006 14.216 79.5526 14.216C79.0966 14.216 78.7406 14.352 78.4846 14.624C78.2366 14.896 78.1126 15.288 78.1126 15.8V17.06C78.1126 17.572 78.2366 17.964 78.4846 18.236C78.7406 18.508 79.0966 18.644 79.5526 18.644ZM84.2879 20V11.24H86.7719C87.5719 11.24 88.1959 11.44 88.6439 11.84C89.0999 12.24 89.3279 12.796 89.3279 13.508C89.3279 13.908 89.2439 14.256 89.0759 14.552C88.9079 14.848 88.6679 15.076 88.3559 15.236C88.0519 15.396 87.6839 15.472 87.2519 15.464V15.284C87.7159 15.276 88.1159 15.364 88.4519 15.548C88.7959 15.732 89.0599 15.996 89.2439 16.34C89.4359 16.684 89.5319 17.092 89.5319 17.564C89.5319 18.06 89.4279 18.492 89.2199 18.86C89.0119 19.228 88.7159 19.512 88.3319 19.712C87.9479 19.904 87.4879 20 86.9519 20H84.2879ZM85.3439 19.028H86.8319C87.3359 19.028 87.7319 18.896 88.0199 18.632C88.3159 18.36 88.4639 17.992 88.4639 17.528C88.4639 17.048 88.3159 16.66 88.0199 16.364C87.7319 16.06 87.3359 15.908 86.8319 15.908H85.3439V19.028ZM85.3439 14.972H86.7599C87.2239 14.972 87.5879 14.848 87.8519 14.6C88.1239 14.352 88.2599 14.016 88.2599 13.592C88.2599 13.168 88.1279 12.832 87.8639 12.584C87.5999 12.336 87.2359 12.212 86.7719 12.212H85.3439V14.972ZM93.9672 20.096C93.4392 20.096 92.9832 19.996 92.5992 19.796C92.2152 19.596 91.9152 19.308 91.6992 18.932C91.4912 18.548 91.3872 18.096 91.3872 17.576V15.824C91.3872 15.296 91.4912 14.844 91.6992 14.468C91.9152 14.092 92.2152 13.804 92.5992 13.604C92.9832 13.404 93.4392 13.304 93.9672 13.304C94.4952 13.304 94.9512 13.404 95.3352 13.604C95.7192 13.804 96.0152 14.092 96.2232 14.468C96.4392 14.844 96.5472 15.292 96.5472 15.812V17.576C96.5472 18.096 96.4392 18.548 96.2232 18.932C96.0152 19.308 95.7192 19.596 95.3352 19.796C94.9512 19.996 94.4952 20.096 93.9672 20.096ZM93.9672 19.136C94.4392 19.136 94.8072 19.004 95.0712 18.74C95.3352 18.476 95.4672 18.088 95.4672 17.576V15.824C95.4672 15.312 95.3352 14.924 95.0712 14.66C94.8072 14.396 94.4392 14.264 93.9672 14.264C93.5032 14.264 93.1352 14.396 92.8632 14.66C92.5992 14.924 92.4672 15.312 92.4672 15.824V17.576C92.4672 18.088 92.5992 18.476 92.8632 18.74C93.1352 19.004 93.5032 19.136 93.9672 19.136ZM101.163 20.096C100.635 20.096 100.179 19.996 99.7945 19.796C99.4105 19.596 99.1105 19.308 98.8945 18.932C98.6865 18.548 98.5825 18.096 98.5825 17.576V15.824C98.5825 15.296 98.6865 14.844 98.8945 14.468C99.1105 14.092 99.4105 13.804 99.7945 13.604C100.179 13.404 100.635 13.304 101.163 13.304C101.691 13.304 102.147 13.404 102.531 13.604C102.915 13.804 103.211 14.092 103.419 14.468C103.635 14.844 103.743 15.292 103.743 15.812V17.576C103.743 18.096 103.635 18.548 103.419 18.932C103.211 19.308 102.915 19.596 102.531 19.796C102.147 19.996 101.691 20.096 101.163 20.096ZM101.163 19.136C101.635 19.136 102.003 19.004 102.267 18.74C102.531 18.476 102.663 18.088 102.663 17.576V15.824C102.663 15.312 102.531 14.924 102.267 14.66C102.003 14.396 101.635 14.264 101.163 14.264C100.699 14.264 100.331 14.396 100.059 14.66C99.7945 14.924 99.6625 15.312 99.6625 15.824V17.576C99.6625 18.088 99.7945 18.476 100.059 18.74C100.331 19.004 100.699 19.136 101.163 19.136ZM109.078 20C108.51 20 108.066 19.848 107.746 19.544C107.434 19.24 107.278 18.812 107.278 18.26V14.384H105.418V13.4H107.278V11.54H108.358V13.4H110.998V14.384H108.358V18.26C108.358 18.764 108.598 19.016 109.078 19.016H110.878V20H109.078Z" fill="#4F4D4D"/>
</svg>
